<svg xmlns="http://www.w3.org/2000/svg" width="920" height="380" viewBox="0 0 920 380">
  <style>
  text { font-family: ui-sans-serif, system-ui, sans-serif; font-size: 12px; fill: #768390; }
  .title { font-size: 15px; font-weight: 600; fill: #768390; }
  .footer { font-size: 10px; fill: #768390; opacity: 0.85; }
  .axis { stroke: #768390; stroke-width: 1; }
  .grid { stroke: #768390; stroke-width: 0.5; opacity: 0.25; }
  .line { stroke: #4493f8; stroke-width: 1.8; fill: none; }
  .pos { fill: #3fb950; }
  .neg { fill: #f85149; }
  @media (prefers-color-scheme: dark) {
    text, .title, .footer { fill: #9198a1; }
  }
</style>
  <text class="title" x="72" y="24">Realized APY, trailing 30 days</text>
  <text transform="rotate(-90)" x="-184" y="16" text-anchor="middle">% APY</text>
  <line class="grid" x1="72" x2="872" y1="324.0" y2="324.0"/>
  <line class="grid" x1="72" x2="872" y1="230.7" y2="230.7"/>
  <line class="grid" x1="72" x2="872" y1="137.3" y2="137.3"/>
  <line class="grid" x1="72" x2="872" y1="44.0" y2="44.0"/>
  <line class="axis" x1="72" x2="872" y1="324.0" y2="324.0"/>
  <text x="64" y="328.0" text-anchor="end">0%</text>
  <text x="64" y="234.7" text-anchor="end">5%</text>
  <text x="64" y="141.3" text-anchor="end">10%</text>
  <text x="64" y="48.0" text-anchor="end">15%</text>
  <text x="157.2" y="342" text-anchor="middle">Jan '25</text>
  <text x="258.0" y="342" text-anchor="middle">Apr '25</text>
  <text x="360.0" y="342" text-anchor="middle">Jul '25</text>
  <text x="463.0" y="342" text-anchor="middle">Oct '25</text>
  <text x="566.1" y="342" text-anchor="middle">Jan '26</text>
  <text x="667.0" y="342" text-anchor="middle">Apr '26</text>
  <text x="768.9" y="342" text-anchor="middle">Jul '26</text>
  <text x="872.0" y="342" text-anchor="middle">Oct '26</text>
  <path class="line" d="M72.0,205.7L73.1,205.6L74.2,205.4L75.4,205.3L76.5,205.1L77.6,204.9L78.7,204.8L79.8,204.6L81.0,204.5L82.1,204.3L83.2,204.2L84.3,204.0L85.4,203.9L86.6,203.7L87.7,203.5L88.8,203.4L89.9,203.2L91.0,203.1L92.2,202.9L93.3,202.8L94.4,202.7L95.5,202.7L96.6,202.7L97.8,202.7L98.9,202.7L100.0,202.7L101.1,202.7L102.3,202.7L103.4,202.7L104.5,202.7L105.6,202.7L106.7,202.7L107.9,202.3L109.0,200.9L110.1,199.7L111.2,198.6L112.3,197.2L113.5,196.1L114.6,194.8L115.7,193.5L116.8,192.4L117.9,191.0L119.1,189.8L120.2,188.6L121.3,187.1L122.4,185.3L123.5,183.5L124.7,181.5L125.8,179.6L126.9,177.8L128.0,175.9L129.1,174.0L130.3,172.0L131.4,168.3L132.5,164.6L133.6,161.0L134.7,157.3L135.9,153.5L137.0,150.0L138.1,146.1L139.2,142.6L140.3,138.8L141.5,135.4L142.6,132.8L143.7,130.3L144.8,128.0L145.9,125.3L147.1,123.0L148.2,120.6L149.3,117.9L150.4,115.5L151.6,112.9L152.7,110.3L153.8,107.9L154.9,105.6L156.0,103.7L157.2,101.8L158.3,99.9L159.4,98.0L160.5,96.1L161.6,94.3L162.8,92.4L163.9,90.7L165.0,90.7L166.1,90.7L167.2,90.7L168.4,90.7L169.5,90.7L170.6,90.7L171.7,90.7L172.8,90.7L174.0,90.7L175.1,90.7L176.2,90.7L177.3,90.7L178.4,90.7L179.6,90.7L180.7,90.7L181.8,90.7L182.9,90.7L184.0,90.7L185.2,90.7L186.3,90.7L187.4,90.7L188.5,90.7L189.6,90.7L190.8,90.7L191.9,90.7L193.0,90.7L194.1,90.7L195.2,90.7L196.4,90.7L197.5,90.7L198.6,90.7L199.7,90.7L200.9,90.7L202.0,91.6L203.1,94.0L204.2,96.4L205.3,98.7L206.5,101.1L207.6,103.4L208.7,105.8L209.8,108.2L210.9,110.5L212.1,112.9L213.2,115.2L214.3,117.6L215.4,119.9L216.5,122.3L217.7,125.2L218.8,128.9L219.9,132.7L221.0,136.5L222.1,140.2L223.3,144.0L224.4,147.7L225.5,151.4L226.6,155.2L227.7,158.8L228.9,162.6L230.0,166.3L231.1,170.0L232.2,173.7L233.3,177.3L234.5,181.0L235.6,183.7L236.7,185.1L237.8,186.5L238.9,187.9L240.1,189.3L241.2,190.7L242.3,192.1L243.4,193.5L244.5,194.9L245.7,196.3L246.8,197.7L247.9,199.1L249.0,201.0L250.2,203.6L251.3,205.7L252.4,206.9L253.5,208.2L254.6,209.4L255.8,210.7L256.9,212.0L258.0,213.2L259.1,214.5L260.2,215.7L261.4,216.9L262.5,218.2L263.6,219.4L264.7,220.7L265.8,221.9L267.0,223.2L268.1,224.4L269.2,225.7L270.3,226.9L271.4,228.1L272.6,229.4L273.7,230.6L274.8,231.8L275.9,233.1L277.0,234.3L278.2,235.6L279.3,236.8L280.4,238.0L281.5,239.3L282.6,240.0L283.8,240.0L284.9,240.0L286.0,240.0L287.1,240.0L288.2,240.0L289.4,240.0L290.5,240.0L291.6,240.0L292.7,240.0L293.8,240.0L295.0,240.0L296.1,240.0L297.2,240.0L298.3,240.0L299.5,240.0L300.6,240.0L301.7,240.0L302.8,240.0L303.9,240.0L305.1,240.0L306.2,240.0L307.3,240.0L308.4,240.0L309.5,240.0L310.7,240.0L311.8,240.0L312.9,240.0L314.0,240.0L315.1,240.0L316.3,240.0L317.4,240.0L318.5,240.0L319.6,240.0L320.7,240.0L321.9,240.0L323.0,240.0L324.1,240.0L325.2,240.0L326.3,240.0L327.5,240.0L328.6,240.0L329.7,240.0L330.8,240.0L331.9,240.0L333.1,240.0L334.2,240.0L335.3,240.0L336.4,240.0L337.5,240.0L338.7,240.0L339.8,240.0L340.9,240.0L342.0,240.0L343.1,240.0L344.3,240.0L345.4,240.0L346.5,240.0L347.6,240.0L348.8,240.0L349.9,240.0L351.0,240.0L352.1,240.0L353.2,240.0L354.4,240.0L355.5,240.0L356.6,240.0L357.7,240.0L358.8,240.0L360.0,240.0L361.1,240.0L362.2,240.0L363.3,240.0L364.4,240.0L365.6,240.0L366.7,240.0L367.8,240.0L368.9,240.0L370.0,240.0L371.2,240.0L372.3,240.0L373.4,240.0L374.5,240.0L375.6,240.0L376.8,240.0L377.9,240.0L379.0,240.0L380.1,240.0L381.2,240.0L382.4,240.0L383.5,240.0L384.6,240.0L385.7,240.0L386.8,240.0L388.0,240.0L389.1,240.0L390.2,240.0L391.3,240.0L392.4,240.0L393.6,240.0L394.7,240.0L395.8,240.0L396.9,240.0L398.1,239.9L399.2,239.8L400.3,239.6L401.4,239.5L402.5,239.3L403.7,239.2L404.8,239.0L405.9,238.9L407.0,238.7L408.1,238.5L409.3,238.4L410.4,238.2L411.5,238.1L412.6,237.9L413.7,237.8L414.9,237.6L416.0,237.5L417.1,237.3L418.2,237.1L419.3,237.0L420.5,236.8L421.6,236.7L422.7,236.5L423.8,236.4L424.9,236.2L426.1,236.1L427.2,235.9L428.3,235.7L429.4,235.6L430.5,235.4L431.7,235.3L432.8,235.3L433.9,235.3L435.0,235.3L436.1,235.3L437.3,235.3L438.4,235.3L439.5,235.3L440.6,235.3L441.7,235.3L442.9,235.3L444.0,235.3L445.1,235.3L446.2,235.3L447.4,235.3L448.5,235.3L449.6,235.3L450.7,235.3L451.8,235.3L453.0,235.3L454.1,235.3L455.2,235.3L456.3,235.3L457.4,235.3L458.6,235.3L459.7,235.3L460.8,235.3L461.9,235.3L463.0,235.3L464.2,235.3L465.3,235.3L466.4,235.3L467.5,235.3L468.6,235.3L469.8,235.3L470.9,235.3L472.0,235.3L473.1,235.3L474.2,235.3L475.4,235.3L476.5,235.3L477.6,235.3L478.7,235.3L479.8,235.3L481.0,235.3L482.1,235.3L483.2,235.3L484.3,235.3L485.4,235.3L486.6,235.3L487.7,235.3L488.8,235.3L489.9,235.3L491.0,235.3L492.2,235.4L493.3,235.5L494.4,235.7L495.5,235.8L496.6,236.0L497.8,236.2L498.9,236.3L500.0,236.5L501.1,236.6L502.3,236.8L503.4,236.9L504.5,237.1L505.6,237.5L506.7,237.8L507.9,238.1L509.0,238.3L510.1,238.5L511.2,238.6L512.3,238.8L513.5,239.0L514.6,239.1L515.7,239.3L516.8,239.4L517.9,239.6L519.1,239.7L520.2,239.9L521.3,240.0L522.4,240.2L523.5,240.4L524.7,240.5L525.8,240.6L526.9,240.6L528.0,240.6L529.1,240.6L530.3,240.6L531.4,240.6L532.5,240.7L533.6,240.8L534.7,241.0L535.9,241.1L537.0,241.3L538.1,241.4L539.2,241.4L540.3,241.4L541.5,241.4L542.6,241.5L543.7,241.6L544.8,241.8L545.9,241.9L547.1,242.1L548.2,242.3L549.3,242.6L550.4,242.9L551.6,243.2L552.7,243.5L553.8,243.8L554.9,244.2L556.0,244.5L557.2,244.8L558.3,245.1L559.4,245.4L560.5,245.7L561.6,246.0L562.8,246.3L563.9,246.6L565.0,247.0L566.1,247.2L567.2,247.4L568.4,247.5L569.5,247.7L570.6,247.8L571.7,248.0L572.8,248.1L574.0,248.3L575.1,248.5L576.2,248.6L577.3,248.8L578.4,248.9L579.6,249.1L580.7,249.2L581.8,249.3L582.9,249.3L584.0,249.3L585.2,249.3L586.3,249.3L587.4,249.3L588.5,249.3L589.6,249.3L590.8,249.3L591.9,249.3L593.0,249.3L594.1,249.3L595.2,249.3L596.4,249.3L597.5,249.3L598.6,249.3L599.7,249.3L600.9,249.3L602.0,249.3L603.1,249.3L604.2,249.3L605.3,249.3L606.5,249.3L607.6,249.3L608.7,249.3L609.8,249.3L610.9,249.3L612.1,249.3L613.2,249.3L614.3,249.3L615.4,249.3L616.5,249.3L617.7,249.3L618.8,249.3L619.9,249.3L621.0,249.3L622.1,249.3L623.3,249.3L624.4,249.3L625.5,249.3L626.6,249.3L627.7,249.3L628.9,249.3L630.0,249.3L631.1,249.3L632.2,249.3L633.3,249.3L634.5,249.3L635.6,249.3L636.7,249.3L637.8,249.3L638.9,249.3L640.1,249.3L641.2,249.4L642.3,249.5L643.4,249.7L644.5,249.9L645.7,250.0L646.8,250.2L647.9,250.3L649.0,250.5L650.2,250.6L651.3,250.8L652.4,250.9L653.5,251.1L654.6,251.3L655.8,251.4L656.9,251.6L658.0,251.7L659.1,251.9L660.2,252.0L661.4,252.2L662.5,252.3L663.6,252.5L664.7,252.7L665.8,252.8L667.0,253.0L668.1,253.1L669.2,253.3L670.3,253.4L671.4,253.6L672.6,253.7L673.7,253.9L674.8,254.0L675.9,254.0L677.0,254.0L678.2,254.0L679.3,254.0L680.4,254.0L681.5,254.0L682.6,254.0L683.8,254.0L684.9,254.0L686.0,254.0L687.1,254.0L688.2,254.0L689.4,254.0L690.5,254.0L691.6,254.1L692.7,254.2L693.8,254.2L695.0,254.3L696.1,254.3L697.2,254.4L698.3,254.5L699.5,254.5L700.6,254.6L701.7,254.6L702.8,254.7L703.9,254.8L705.1,254.8L706.2,254.9L707.3,255.0L708.4,255.0L709.5,255.1L710.7,255.1L711.8,255.2L712.9,255.3L714.0,255.3L715.1,255.4L716.3,255.5L717.4,255.5L718.5,255.6L719.6,255.6L720.7,255.7L721.9,255.8L723.0,255.8L724.1,255.9L725.2,255.9L726.3,255.9L727.5,255.9L728.6,255.9L729.7,255.9L730.8,255.9L731.9,256.0L733.1,256.0L734.2,256.0L735.3,256.1L736.4,256.1L737.5,256.1L738.7,256.2L739.8,256.2L740.9,256.2L742.0,256.3L743.1,256.3L744.3,256.3L745.4,256.3L746.5,256.4L747.6,256.4L748.8,256.4L749.9,256.5L751.0,256.5L752.1,256.5L753.2,256.6L754.4,256.6L755.5,256.6L756.6,256.7L757.7,256.7L758.8,256.7L760.0,256.7L761.1,256.8L762.2,256.8L763.3,256.8L764.4,256.8L765.6,256.8L766.7,256.8L767.8,256.8L768.9,256.8L770.0,256.8L771.2,256.8L772.3,256.8L773.4,256.8L774.5,256.8L775.6,256.8L776.8,256.8L777.9,256.8L779.0,256.8L780.1,256.8L781.2,256.8L782.4,256.8L783.5,256.8L784.6,256.8L785.7,256.8L786.8,256.8L788.0,256.8L789.1,256.8L790.2,256.8L791.3,256.8L792.4,256.8L793.6,256.8L794.7,256.9L795.8,256.9L796.9,257.0L798.1,257.0L799.2,257.1L800.3,257.1L801.4,257.2L802.5,257.2L803.7,257.3L804.8,257.3L805.9,257.4L807.0,257.4L808.1,257.5L809.3,257.5L810.4,257.6L811.5,257.6L812.6,257.7L813.7,257.7L814.9,257.8L816.0,257.8L817.1,257.9L818.2,257.9L819.3,258.0L820.5,258.0L821.6,258.1L822.7,258.1L823.8,258.2L824.9,258.2L826.1,258.3L827.2,258.3L828.3,258.3L829.4,258.3L830.5,258.3L831.7,258.3L832.8,258.3L833.9,258.3L835.0,258.3L836.1,258.3L837.3,258.3L838.4,258.3L839.5,258.3L840.6,258.3L841.7,258.2L842.9,258.2L844.0,258.1L845.1,258.1L846.2,258.0L847.4,258.0L848.5,257.9L849.6,257.9L850.7,257.8L851.8,257.8L853.0,257.7L854.1,257.7L855.2,257.6L856.3,257.6L857.4,257.5L858.6,257.5L859.7,257.4L860.8,257.4L861.9,257.3L863.0,257.3L864.2,257.2L865.3,257.2L866.4,257.1L867.5,257.1L868.6,257.0L869.8,257.0L870.9,256.9L872.0,256.9"/>
  <text class="footer" x="72" y="372">source: variant of queries/02_apy_realized.sql (30d window per day) · susds-indexer · generated 2026-10-01T10:10:50.032Z · watermark block 26,096,691</text>
</svg>
