<svg xmlns="http://www.w3.org/2000/svg" width="920" height="380" viewBox="0 0 920 380">
  <style>
  text { font-family: ui-sans-serif, system-ui, sans-serif; font-size: 12px; fill: #768390; }
  .title { font-size: 15px; font-weight: 600; fill: #768390; }
  .footer { font-size: 10px; fill: #768390; opacity: 0.85; }
  .axis { stroke: #768390; stroke-width: 1; }
  .grid { stroke: #768390; stroke-width: 0.5; opacity: 0.25; }
  .line { stroke: #4493f8; stroke-width: 1.8; fill: none; }
  .pos { fill: #3fb950; }
  .neg { fill: #f85149; }
  @media (prefers-color-scheme: dark) {
    text, .title, .footer { fill: #9198a1; }
  }
</style>
  <text class="title" x="72" y="24">Realized APY, trailing 30 days</text>
  <text transform="rotate(-90)" x="-184" y="16" text-anchor="middle">% APY</text>
  <line class="grid" x1="72" x2="872" y1="324.0" y2="324.0"/>
  <line class="grid" x1="72" x2="872" y1="230.7" y2="230.7"/>
  <line class="grid" x1="72" x2="872" y1="137.3" y2="137.3"/>
  <line class="grid" x1="72" x2="872" y1="44.0" y2="44.0"/>
  <line class="axis" x1="72" x2="872" y1="324.0" y2="324.0"/>
  <text x="64" y="328.0" text-anchor="end">0%</text>
  <text x="64" y="234.7" text-anchor="end">5%</text>
  <text x="64" y="141.3" text-anchor="end">10%</text>
  <text x="64" y="48.0" text-anchor="end">15%</text>
  <text x="166.6" y="342" text-anchor="middle">Jan '25</text>
  <text x="278.5" y="342" text-anchor="middle">Apr '25</text>
  <text x="391.8" y="342" text-anchor="middle">Jul '25</text>
  <text x="506.2" y="342" text-anchor="middle">Oct '25</text>
  <text x="620.7" y="342" text-anchor="middle">Jan '26</text>
  <text x="732.7" y="342" text-anchor="middle">Apr '26</text>
  <text x="845.9" y="342" text-anchor="middle">Jul '26</text>
  <path class="line" d="M72.0,205.7L73.2,205.6L74.5,205.4L75.7,205.3L77.0,205.1L78.2,204.9L79.5,204.8L80.7,204.6L82.0,204.5L83.2,204.3L84.4,204.2L85.7,204.0L86.9,203.9L88.2,203.7L89.4,203.5L90.7,203.4L91.9,203.2L93.2,203.1L94.4,202.9L95.6,202.8L96.9,202.7L98.1,202.7L99.4,202.7L100.6,202.7L101.9,202.7L103.1,202.7L104.3,202.7L105.6,202.7L106.8,202.7L108.1,202.7L109.3,202.7L110.6,202.7L111.8,202.3L113.1,200.9L114.3,199.7L115.5,198.6L116.8,197.2L118.0,196.1L119.3,194.8L120.5,193.5L121.8,192.4L123.0,191.0L124.3,189.8L125.5,188.6L126.7,187.1L128.0,185.3L129.2,183.5L130.5,181.5L131.7,179.6L133.0,177.8L134.2,175.9L135.5,174.0L136.7,172.0L137.9,168.3L139.2,164.6L140.4,161.0L141.7,157.3L142.9,153.5L144.2,150.0L145.4,146.1L146.7,142.6L147.9,138.8L149.1,135.4L150.4,132.8L151.6,130.3L152.9,128.0L154.1,125.3L155.4,123.0L156.6,120.6L157.8,117.9L159.1,115.5L160.3,112.9L161.6,110.3L162.8,107.9L164.1,105.6L165.3,103.7L166.6,101.8L167.8,99.9L169.0,98.0L170.3,96.1L171.5,94.3L172.8,92.4L174.0,90.7L175.3,90.7L176.5,90.7L177.8,90.7L179.0,90.7L180.2,90.7L181.5,90.7L182.7,90.7L184.0,90.7L185.2,90.7L186.5,90.7L187.7,90.7L189.0,90.7L190.2,90.7L191.4,90.7L192.7,90.7L193.9,90.7L195.2,90.7L196.4,90.7L197.7,90.7L198.9,90.7L200.1,90.7L201.4,90.7L202.6,90.7L203.9,90.7L205.1,90.7L206.4,90.7L207.6,90.7L208.9,90.7L210.1,90.7L211.3,90.7L212.6,90.7L213.8,90.7L215.1,90.7L216.3,91.6L217.6,94.0L218.8,96.4L220.1,98.7L221.3,101.1L222.5,103.4L223.8,105.8L225.0,108.2L226.3,110.5L227.5,112.9L228.8,115.2L230.0,117.6L231.3,119.9L232.5,122.3L233.7,125.2L235.0,128.9L236.2,132.7L237.5,136.5L238.7,140.2L240.0,144.0L241.2,147.7L242.5,151.4L243.7,155.2L244.9,158.8L246.2,162.6L247.4,166.3L248.7,170.0L249.9,173.7L251.2,177.3L252.4,181.0L253.6,183.7L254.9,185.1L256.1,186.5L257.4,187.9L258.6,189.3L259.9,190.7L261.1,192.1L262.4,193.5L263.6,194.9L264.8,196.3L266.1,197.7L267.3,199.1L268.6,201.0L269.8,203.6L271.1,205.7L272.3,206.9L273.6,208.2L274.8,209.4L276.0,210.7L277.3,212.0L278.5,213.2L279.8,214.5L281.0,215.7L282.3,216.9L283.5,218.2L284.8,219.4L286.0,220.7L287.2,221.9L288.5,223.2L289.7,224.4L291.0,225.7L292.2,226.9L293.5,228.1L294.7,229.4L296.0,230.6L297.2,231.8L298.4,233.1L299.7,234.3L300.9,235.6L302.2,236.8L303.4,238.0L304.7,239.3L305.9,240.0L307.1,240.0L308.4,240.0L309.6,240.0L310.9,240.0L312.1,240.0L313.4,240.0L314.6,240.0L315.9,240.0L317.1,240.0L318.3,240.0L319.6,240.0L320.8,240.0L322.1,240.0L323.3,240.0L324.6,240.0L325.8,240.0L327.1,240.0L328.3,240.0L329.5,240.0L330.8,240.0L332.0,240.0L333.3,240.0L334.5,240.0L335.8,240.0L337.0,240.0L338.3,240.0L339.5,240.0L340.7,240.0L342.0,240.0L343.2,240.0L344.5,240.0L345.7,240.0L347.0,240.0L348.2,240.0L349.4,240.0L350.7,240.0L351.9,240.0L353.2,240.0L354.4,240.0L355.7,240.0L356.9,240.0L358.2,240.0L359.4,240.0L360.6,240.0L361.9,240.0L363.1,240.0L364.4,240.0L365.6,240.0L366.9,240.0L368.1,240.0L369.4,240.0L370.6,240.0L371.8,240.0L373.1,240.0L374.3,240.0L375.6,240.0L376.8,240.0L378.1,240.0L379.3,240.0L380.6,240.0L381.8,240.0L383.0,240.0L384.3,240.0L385.5,240.0L386.8,240.0L388.0,240.0L389.3,240.0L390.5,240.0L391.8,240.0L393.0,240.0L394.2,240.0L395.5,240.0L396.7,240.0L398.0,240.0L399.2,240.0L400.5,240.0L401.7,240.0L402.9,240.0L404.2,240.0L405.4,240.0L406.7,240.0L407.9,240.0L409.2,240.0L410.4,240.0L411.7,240.0L412.9,240.0L414.1,240.0L415.4,240.0L416.6,240.0L417.9,240.0L419.1,240.0L420.4,240.0L421.6,240.0L422.9,240.0L424.1,240.0L425.3,240.0L426.6,240.0L427.8,240.0L429.1,240.0L430.3,240.0L431.6,240.0L432.8,240.0L434.1,239.9L435.3,239.8L436.5,239.6L437.8,239.5L439.0,239.3L440.3,239.2L441.5,239.0L442.8,238.9L444.0,238.7L445.3,238.5L446.5,238.4L447.7,238.2L449.0,238.1L450.2,237.9L451.5,237.8L452.7,237.6L454.0,237.5L455.2,237.3L456.4,237.1L457.7,237.0L458.9,236.8L460.2,236.7L461.4,236.5L462.7,236.4L463.9,236.2L465.2,236.1L466.4,235.9L467.6,235.7L468.9,235.6L470.1,235.4L471.4,235.3L472.6,235.3L473.9,235.3L475.1,235.3L476.4,235.3L477.6,235.3L478.8,235.3L480.1,235.3L481.3,235.3L482.6,235.3L483.8,235.3L485.1,235.3L486.3,235.3L487.6,235.3L488.8,235.3L490.0,235.3L491.3,235.3L492.5,235.3L493.8,235.3L495.0,235.3L496.3,235.3L497.5,235.3L498.7,235.3L500.0,235.3L501.2,235.3L502.5,235.3L503.7,235.3L505.0,235.3L506.2,235.3L507.5,235.3L508.7,235.3L509.9,235.3L511.2,235.3L512.4,235.3L513.7,235.3L514.9,235.3L516.2,235.3L517.4,235.3L518.7,235.3L519.9,235.3L521.1,235.3L522.4,235.3L523.6,235.3L524.9,235.3L526.1,235.3L527.4,235.3L528.6,235.3L529.9,235.3L531.1,235.3L532.3,235.3L533.6,235.3L534.8,235.3L536.1,235.3L537.3,235.3L538.6,235.4L539.8,235.5L541.1,235.7L542.3,235.8L543.5,236.0L544.8,236.2L546.0,236.3L547.3,236.5L548.5,236.6L549.8,236.8L551.0,236.9L552.2,237.1L553.5,237.5L554.7,237.8L556.0,238.1L557.2,238.3L558.5,238.5L559.7,238.6L561.0,238.8L562.2,239.0L563.4,239.1L564.7,239.3L565.9,239.4L567.2,239.6L568.4,239.7L569.7,239.9L570.9,240.0L572.2,240.2L573.4,240.4L574.6,240.5L575.9,240.6L577.1,240.6L578.4,240.6L579.6,240.6L580.9,240.6L582.1,240.6L583.4,240.7L584.6,240.8L585.8,241.0L587.1,241.1L588.3,241.3L589.6,241.4L590.8,241.4L592.1,241.4L593.3,241.4L594.6,241.5L595.8,241.6L597.0,241.8L598.3,241.9L599.5,242.1L600.8,242.3L602.0,242.6L603.3,242.9L604.5,243.2L605.7,243.5L607.0,243.8L608.2,244.2L609.5,244.5L610.7,244.8L612.0,245.1L613.2,245.4L614.5,245.7L615.7,246.0L616.9,246.3L618.2,246.6L619.4,247.0L620.7,247.2L621.9,247.4L623.2,247.5L624.4,247.7L625.7,247.8L626.9,248.0L628.1,248.1L629.4,248.3L630.6,248.5L631.9,248.6L633.1,248.8L634.4,248.9L635.6,249.1L636.9,249.2L638.1,249.3L639.3,249.3L640.6,249.3L641.8,249.3L643.1,249.3L644.3,249.3L645.6,249.3L646.8,249.3L648.0,249.3L649.3,249.3L650.5,249.3L651.8,249.3L653.0,249.3L654.3,249.3L655.5,249.3L656.8,249.3L658.0,249.3L659.2,249.3L660.5,249.3L661.7,249.3L663.0,249.3L664.2,249.3L665.5,249.3L666.7,249.3L668.0,249.3L669.2,249.3L670.4,249.3L671.7,249.3L672.9,249.3L674.2,249.3L675.4,249.3L676.7,249.3L677.9,249.3L679.2,249.3L680.4,249.3L681.6,249.3L682.9,249.3L684.1,249.3L685.4,249.3L686.6,249.3L687.9,249.3L689.1,249.3L690.4,249.3L691.6,249.3L692.8,249.3L694.1,249.3L695.3,249.3L696.6,249.3L697.8,249.3L699.1,249.3L700.3,249.3L701.5,249.3L702.8,249.3L704.0,249.4L705.3,249.5L706.5,249.7L707.8,249.9L709.0,250.0L710.3,250.2L711.5,250.3L712.7,250.5L714.0,250.6L715.2,250.8L716.5,250.9L717.7,251.1L719.0,251.3L720.2,251.4L721.5,251.6L722.7,251.7L723.9,251.9L725.2,252.0L726.4,252.2L727.7,252.3L728.9,252.5L730.2,252.7L731.4,252.8L732.7,253.0L733.9,253.1L735.1,253.3L736.4,253.4L737.6,253.6L738.9,253.7L740.1,253.9L741.4,254.0L742.6,254.0L743.9,254.0L745.1,254.0L746.3,254.0L747.6,254.0L748.8,254.0L750.1,254.0L751.3,254.0L752.6,254.0L753.8,254.0L755.0,254.0L756.3,254.0L757.5,254.0L758.8,254.0L760.0,254.1L761.3,254.2L762.5,254.2L763.8,254.3L765.0,254.3L766.2,254.4L767.5,254.5L768.7,254.5L770.0,254.6L771.2,254.6L772.5,254.7L773.7,254.8L775.0,254.8L776.2,254.9L777.4,255.0L778.7,255.0L779.9,255.1L781.2,255.1L782.4,255.2L783.7,255.3L784.9,255.3L786.2,255.4L787.4,255.5L788.6,255.5L789.9,255.6L791.1,255.6L792.4,255.7L793.6,255.8L794.9,255.8L796.1,255.9L797.3,255.9L798.6,255.9L799.8,255.9L801.1,255.9L802.3,255.9L803.6,255.9L804.8,256.0L806.1,256.0L807.3,256.0L808.5,256.1L809.8,256.1L811.0,256.1L812.3,256.2L813.5,256.2L814.8,256.2L816.0,256.3L817.3,256.3L818.5,256.3L819.7,256.3L821.0,256.4L822.2,256.4L823.5,256.4L824.7,256.5L826.0,256.5L827.2,256.5L828.5,256.6L829.7,256.6L830.9,256.6L832.2,256.7L833.4,256.7L834.7,256.7L835.9,256.7L837.2,256.8L838.4,256.8L839.7,256.8L840.9,256.8L842.1,256.8L843.4,256.8L844.6,256.8L845.9,256.8L847.1,256.8L848.4,256.8L849.6,256.8L850.8,256.8L852.1,256.8L853.3,256.8L854.6,256.8L855.8,256.8L857.1,256.8L858.3,256.8L859.6,256.8L860.8,256.8L862.0,256.8L863.3,256.8L864.5,256.8L865.8,256.8L867.0,256.8L868.3,256.8L869.5,256.8L870.8,256.8L872.0,256.8"/>
  <text class="footer" x="72" y="372">source: variant of queries/02_apy_realized.sql (30d window per day) · susds-indexer · generated 2026-07-22T01:34:09.914Z · watermark block 25,584,691</text>
</svg>
