<svg xmlns="http://www.w3.org/2000/svg" width="920" height="380" viewBox="0 0 920 380">
  <style>
  text { font-family: ui-sans-serif, system-ui, sans-serif; font-size: 12px; fill: #768390; }
  .title { font-size: 15px; font-weight: 600; fill: #768390; }
  .footer { font-size: 10px; fill: #768390; opacity: 0.85; }
  .axis { stroke: #768390; stroke-width: 1; }
  .grid { stroke: #768390; stroke-width: 0.5; opacity: 0.25; }
  .line { stroke: #4493f8; stroke-width: 1.8; fill: none; }
  .pos { fill: #3fb950; }
  .neg { fill: #f85149; }
  @media (prefers-color-scheme: dark) {
    text, .title, .footer { fill: #9198a1; }
  }
</style>
  <text class="title" x="72" y="24">Realized APY, trailing 30 days</text>
  <text transform="rotate(-90)" x="-184" y="16" text-anchor="middle">% APY</text>
  <line class="grid" x1="72" x2="872" y1="324.0" y2="324.0"/>
  <line class="grid" x1="72" x2="872" y1="230.7" y2="230.7"/>
  <line class="grid" x1="72" x2="872" y1="137.3" y2="137.3"/>
  <line class="grid" x1="72" x2="872" y1="44.0" y2="44.0"/>
  <line class="axis" x1="72" x2="872" y1="324.0" y2="324.0"/>
  <text x="64" y="328.0" text-anchor="end">0%</text>
  <text x="64" y="234.7" text-anchor="end">5%</text>
  <text x="64" y="141.3" text-anchor="end">10%</text>
  <text x="64" y="48.0" text-anchor="end">15%</text>
  <text x="166.4" y="342" text-anchor="middle">Jan '25</text>
  <text x="278.2" y="342" text-anchor="middle">Apr '25</text>
  <text x="391.3" y="342" text-anchor="middle">Jul '25</text>
  <text x="505.5" y="342" text-anchor="middle">Oct '25</text>
  <text x="619.8" y="342" text-anchor="middle">Jan '26</text>
  <text x="731.6" y="342" text-anchor="middle">Apr '26</text>
  <text x="844.7" y="342" text-anchor="middle">Jul '26</text>
  <path class="line" d="M72.0,205.7L73.2,205.6L74.5,205.4L75.7,205.3L77.0,205.1L78.2,204.9L79.5,204.8L80.7,204.6L81.9,204.5L83.2,204.3L84.4,204.2L85.7,204.0L86.9,203.9L88.1,203.7L89.4,203.5L90.6,203.4L91.9,203.2L93.1,203.1L94.4,202.9L95.6,202.8L96.8,202.7L98.1,202.7L99.3,202.7L100.6,202.7L101.8,202.7L103.1,202.7L104.3,202.7L105.5,202.7L106.8,202.7L108.0,202.7L109.3,202.7L110.5,202.7L111.8,202.3L113.0,200.9L114.2,199.7L115.5,198.6L116.7,197.2L118.0,196.1L119.2,194.8L120.4,193.5L121.7,192.4L122.9,191.0L124.2,189.8L125.4,188.6L126.7,187.1L127.9,185.3L129.1,183.5L130.4,181.5L131.6,179.6L132.9,177.8L134.1,175.9L135.4,174.0L136.6,172.0L137.8,168.3L139.1,164.6L140.3,161.0L141.6,157.3L142.8,153.5L144.0,150.0L145.3,146.1L146.5,142.6L147.8,138.8L149.0,135.4L150.3,132.8L151.5,130.3L152.7,128.0L154.0,125.3L155.2,123.0L156.5,120.6L157.7,117.9L159.0,115.5L160.2,112.9L161.4,110.3L162.7,107.9L163.9,105.6L165.2,103.7L166.4,101.8L167.7,99.9L168.9,98.0L170.1,96.1L171.4,94.3L172.6,92.4L173.9,90.7L175.1,90.7L176.3,90.7L177.6,90.7L178.8,90.7L180.1,90.7L181.3,90.7L182.6,90.7L183.8,90.7L185.0,90.7L186.3,90.7L187.5,90.7L188.8,90.7L190.0,90.7L191.3,90.7L192.5,90.7L193.7,90.7L195.0,90.7L196.2,90.7L197.5,90.7L198.7,90.7L200.0,90.7L201.2,90.7L202.4,90.7L203.7,90.7L204.9,90.7L206.2,90.7L207.4,90.7L208.6,90.7L209.9,90.7L211.1,90.7L212.4,90.7L213.6,90.7L214.9,90.7L216.1,91.6L217.3,94.0L218.6,96.4L219.8,98.7L221.1,101.1L222.3,103.4L223.6,105.8L224.8,108.2L226.0,110.5L227.3,112.9L228.5,115.2L229.8,117.6L231.0,119.9L232.2,122.3L233.5,125.2L234.7,128.9L236.0,132.7L237.2,136.5L238.5,140.2L239.7,144.0L240.9,147.7L242.2,151.4L243.4,155.2L244.7,158.8L245.9,162.6L247.2,166.3L248.4,170.0L249.6,173.7L250.9,177.3L252.1,181.0L253.4,183.7L254.6,185.1L255.9,186.5L257.1,187.9L258.3,189.3L259.6,190.7L260.8,192.1L262.1,193.5L263.3,194.9L264.5,196.3L265.8,197.7L267.0,199.1L268.3,201.0L269.5,203.6L270.8,205.7L272.0,206.9L273.2,208.2L274.5,209.4L275.7,210.7L277.0,212.0L278.2,213.2L279.5,214.5L280.7,215.7L281.9,216.9L283.2,218.2L284.4,219.4L285.7,220.7L286.9,221.9L288.1,223.2L289.4,224.4L290.6,225.7L291.9,226.9L293.1,228.1L294.4,229.4L295.6,230.6L296.8,231.8L298.1,233.1L299.3,234.3L300.6,235.6L301.8,236.8L303.1,238.0L304.3,239.3L305.5,240.0L306.8,240.0L308.0,240.0L309.3,240.0L310.5,240.0L311.8,240.0L313.0,240.0L314.2,240.0L315.5,240.0L316.7,240.0L318.0,240.0L319.2,240.0L320.4,240.0L321.7,240.0L322.9,240.0L324.2,240.0L325.4,240.0L326.7,240.0L327.9,240.0L329.1,240.0L330.4,240.0L331.6,240.0L332.9,240.0L334.1,240.0L335.4,240.0L336.6,240.0L337.8,240.0L339.1,240.0L340.3,240.0L341.6,240.0L342.8,240.0L344.0,240.0L345.3,240.0L346.5,240.0L347.8,240.0L349.0,240.0L350.3,240.0L351.5,240.0L352.7,240.0L354.0,240.0L355.2,240.0L356.5,240.0L357.7,240.0L359.0,240.0L360.2,240.0L361.4,240.0L362.7,240.0L363.9,240.0L365.2,240.0L366.4,240.0L367.7,240.0L368.9,240.0L370.1,240.0L371.4,240.0L372.6,240.0L373.9,240.0L375.1,240.0L376.3,240.0L377.6,240.0L378.8,240.0L380.1,240.0L381.3,240.0L382.6,240.0L383.8,240.0L385.0,240.0L386.3,240.0L387.5,240.0L388.8,240.0L390.0,240.0L391.3,240.0L392.5,240.0L393.7,240.0L395.0,240.0L396.2,240.0L397.5,240.0L398.7,240.0L400.0,240.0L401.2,240.0L402.4,240.0L403.7,240.0L404.9,240.0L406.2,240.0L407.4,240.0L408.6,240.0L409.9,240.0L411.1,240.0L412.4,240.0L413.6,240.0L414.9,240.0L416.1,240.0L417.3,240.0L418.6,240.0L419.8,240.0L421.1,240.0L422.3,240.0L423.6,240.0L424.8,240.0L426.0,240.0L427.3,240.0L428.5,240.0L429.8,240.0L431.0,240.0L432.2,240.0L433.5,239.9L434.7,239.8L436.0,239.6L437.2,239.5L438.5,239.3L439.7,239.2L440.9,239.0L442.2,238.9L443.4,238.7L444.7,238.5L445.9,238.4L447.2,238.2L448.4,238.1L449.6,237.9L450.9,237.8L452.1,237.6L453.4,237.5L454.6,237.3L455.9,237.1L457.1,237.0L458.3,236.8L459.6,236.7L460.8,236.5L462.1,236.4L463.3,236.2L464.5,236.1L465.8,235.9L467.0,235.7L468.3,235.6L469.5,235.4L470.8,235.3L472.0,235.3L473.2,235.3L474.5,235.3L475.7,235.3L477.0,235.3L478.2,235.3L479.5,235.3L480.7,235.3L481.9,235.3L483.2,235.3L484.4,235.3L485.7,235.3L486.9,235.3L488.1,235.3L489.4,235.3L490.6,235.3L491.9,235.3L493.1,235.3L494.4,235.3L495.6,235.3L496.8,235.3L498.1,235.3L499.3,235.3L500.6,235.3L501.8,235.3L503.1,235.3L504.3,235.3L505.5,235.3L506.8,235.3L508.0,235.3L509.3,235.3L510.5,235.3L511.8,235.3L513.0,235.3L514.2,235.3L515.5,235.3L516.7,235.3L518.0,235.3L519.2,235.3L520.4,235.3L521.7,235.3L522.9,235.3L524.2,235.3L525.4,235.3L526.7,235.3L527.9,235.3L529.1,235.3L530.4,235.3L531.6,235.3L532.9,235.3L534.1,235.3L535.4,235.3L536.6,235.3L537.8,235.4L539.1,235.5L540.3,235.7L541.6,235.8L542.8,236.0L544.0,236.2L545.3,236.3L546.5,236.5L547.8,236.6L549.0,236.8L550.3,236.9L551.5,237.1L552.7,237.5L554.0,237.8L555.2,238.1L556.5,238.3L557.7,238.5L559.0,238.6L560.2,238.8L561.4,239.0L562.7,239.1L563.9,239.3L565.2,239.4L566.4,239.6L567.7,239.7L568.9,239.9L570.1,240.0L571.4,240.2L572.6,240.4L573.9,240.5L575.1,240.6L576.3,240.6L577.6,240.6L578.8,240.6L580.1,240.6L581.3,240.6L582.6,240.7L583.8,240.8L585.0,241.0L586.3,241.1L587.5,241.3L588.8,241.4L590.0,241.4L591.3,241.4L592.5,241.4L593.7,241.5L595.0,241.6L596.2,241.8L597.5,241.9L598.7,242.1L600.0,242.3L601.2,242.6L602.4,242.9L603.7,243.2L604.9,243.5L606.2,243.8L607.4,244.2L608.6,244.5L609.9,244.8L611.1,245.1L612.4,245.4L613.6,245.7L614.9,246.0L616.1,246.3L617.3,246.6L618.6,247.0L619.8,247.2L621.1,247.4L622.3,247.5L623.6,247.7L624.8,247.8L626.0,248.0L627.3,248.1L628.5,248.3L629.8,248.5L631.0,248.6L632.2,248.8L633.5,248.9L634.7,249.1L636.0,249.2L637.2,249.3L638.5,249.3L639.7,249.3L640.9,249.3L642.2,249.3L643.4,249.3L644.7,249.3L645.9,249.3L647.2,249.3L648.4,249.3L649.6,249.3L650.9,249.3L652.1,249.3L653.4,249.3L654.6,249.3L655.9,249.3L657.1,249.3L658.3,249.3L659.6,249.3L660.8,249.3L662.1,249.3L663.3,249.3L664.5,249.3L665.8,249.3L667.0,249.3L668.3,249.3L669.5,249.3L670.8,249.3L672.0,249.3L673.2,249.3L674.5,249.3L675.7,249.3L677.0,249.3L678.2,249.3L679.5,249.3L680.7,249.3L681.9,249.3L683.2,249.3L684.4,249.3L685.7,249.3L686.9,249.3L688.1,249.3L689.4,249.3L690.6,249.3L691.9,249.3L693.1,249.3L694.4,249.3L695.6,249.3L696.8,249.3L698.1,249.3L699.3,249.3L700.6,249.3L701.8,249.3L703.1,249.4L704.3,249.5L705.5,249.7L706.8,249.9L708.0,250.0L709.3,250.2L710.5,250.3L711.8,250.5L713.0,250.6L714.2,250.8L715.5,250.9L716.7,251.1L718.0,251.3L719.2,251.4L720.4,251.6L721.7,251.7L722.9,251.9L724.2,252.0L725.4,252.2L726.7,252.3L727.9,252.5L729.1,252.7L730.4,252.8L731.6,253.0L732.9,253.1L734.1,253.3L735.4,253.4L736.6,253.6L737.8,253.7L739.1,253.9L740.3,254.0L741.6,254.0L742.8,254.0L744.0,254.0L745.3,254.0L746.5,254.0L747.8,254.0L749.0,254.0L750.3,254.0L751.5,254.0L752.7,254.0L754.0,254.0L755.2,254.0L756.5,254.0L757.7,254.0L759.0,254.1L760.2,254.2L761.4,254.2L762.7,254.3L763.9,254.3L765.2,254.4L766.4,254.5L767.7,254.5L768.9,254.6L770.1,254.6L771.4,254.7L772.6,254.8L773.9,254.8L775.1,254.9L776.3,255.0L777.6,255.0L778.8,255.1L780.1,255.1L781.3,255.2L782.6,255.3L783.8,255.3L785.0,255.4L786.3,255.5L787.5,255.5L788.8,255.6L790.0,255.6L791.3,255.7L792.5,255.8L793.7,255.8L795.0,255.9L796.2,255.9L797.5,255.9L798.7,255.9L800.0,255.9L801.2,255.9L802.4,255.9L803.7,256.0L804.9,256.0L806.2,256.0L807.4,256.1L808.6,256.1L809.9,256.1L811.1,256.2L812.4,256.2L813.6,256.2L814.9,256.3L816.1,256.3L817.3,256.3L818.6,256.3L819.8,256.4L821.1,256.4L822.3,256.4L823.6,256.5L824.8,256.5L826.0,256.5L827.3,256.6L828.5,256.6L829.8,256.6L831.0,256.7L832.2,256.7L833.5,256.7L834.7,256.7L836.0,256.8L837.2,256.8L838.5,256.8L839.7,256.8L840.9,256.8L842.2,256.8L843.4,256.8L844.7,256.8L845.9,256.8L847.2,256.8L848.4,256.8L849.6,256.8L850.9,256.8L852.1,256.8L853.4,256.8L854.6,256.8L855.9,256.8L857.1,256.8L858.3,256.8L859.6,256.8L860.8,256.8L862.1,256.8L863.3,256.8L864.5,256.8L865.8,256.8L867.0,256.8L868.3,256.8L869.5,256.8L870.8,256.8L872.0,256.8"/>
  <text class="footer" x="72" y="372">source: variant of queries/02_apy_realized.sql (30d window per day) · susds-indexer · generated 2026-07-23T06:11:15.194Z · watermark block 25,593,477</text>
</svg>
