<svg xmlns="http://www.w3.org/2000/svg" width="920" height="380" viewBox="0 0 920 380">
  <style>
  text { font-family: ui-sans-serif, system-ui, sans-serif; font-size: 12px; fill: #768390; }
  .title { font-size: 15px; font-weight: 600; fill: #768390; }
  .footer { font-size: 10px; fill: #768390; opacity: 0.85; }
  .axis { stroke: #768390; stroke-width: 1; }
  .grid { stroke: #768390; stroke-width: 0.5; opacity: 0.25; }
  .line { stroke: #4493f8; stroke-width: 1.8; fill: none; }
  .pos { fill: #3fb950; }
  .neg { fill: #f85149; }
  @media (prefers-color-scheme: dark) {
    text, .title, .footer { fill: #9198a1; }
  }
</style>
  <text class="title" x="72" y="24">Realized APY, trailing 30 days</text>
  <text transform="rotate(-90)" x="-184" y="16" text-anchor="middle">% APY</text>
  <line class="grid" x1="72" x2="872" y1="324.0" y2="324.0"/>
  <line class="grid" x1="72" x2="872" y1="230.7" y2="230.7"/>
  <line class="grid" x1="72" x2="872" y1="137.3" y2="137.3"/>
  <line class="grid" x1="72" x2="872" y1="44.0" y2="44.0"/>
  <line class="axis" x1="72" x2="872" y1="324.0" y2="324.0"/>
  <text x="64" y="328.0" text-anchor="end">0%</text>
  <text x="64" y="234.7" text-anchor="end">5%</text>
  <text x="64" y="141.3" text-anchor="end">10%</text>
  <text x="64" y="48.0" text-anchor="end">15%</text>
  <text x="156.8" y="342" text-anchor="middle">Jan '25</text>
  <text x="257.2" y="342" text-anchor="middle">Apr '25</text>
  <text x="358.8" y="342" text-anchor="middle">Jul '25</text>
  <text x="461.4" y="342" text-anchor="middle">Oct '25</text>
  <text x="564.1" y="342" text-anchor="middle">Jan '26</text>
  <text x="664.5" y="342" text-anchor="middle">Apr '26</text>
  <text x="766.0" y="342" text-anchor="middle">Jul '26</text>
  <text x="868.7" y="342" text-anchor="middle">Oct '26</text>
  <path class="line" d="M72.0,205.7L73.1,205.6L74.2,205.4L75.3,205.3L76.5,205.1L77.6,204.9L78.7,204.8L79.8,204.6L80.9,204.5L82.0,204.3L83.2,204.2L84.3,204.0L85.4,203.9L86.5,203.7L87.6,203.5L88.7,203.4L89.9,203.2L91.0,203.1L92.1,202.9L93.2,202.8L94.3,202.7L95.4,202.7L96.5,202.7L97.7,202.7L98.8,202.7L99.9,202.7L101.0,202.7L102.1,202.7L103.2,202.7L104.4,202.7L105.5,202.7L106.6,202.7L107.7,202.3L108.8,200.9L109.9,199.7L111.1,198.6L112.2,197.2L113.3,196.1L114.4,194.8L115.5,193.5L116.6,192.4L117.7,191.0L118.9,189.8L120.0,188.6L121.1,187.1L122.2,185.3L123.3,183.5L124.4,181.5L125.6,179.6L126.7,177.8L127.8,175.9L128.9,174.0L130.0,172.0L131.1,168.3L132.3,164.6L133.4,161.0L134.5,157.3L135.6,153.5L136.7,150.0L137.8,146.1L138.9,142.6L140.1,138.8L141.2,135.4L142.3,132.8L143.4,130.3L144.5,128.0L145.6,125.3L146.8,123.0L147.9,120.6L149.0,117.9L150.1,115.5L151.2,112.9L152.3,110.3L153.5,107.9L154.6,105.6L155.7,103.7L156.8,101.8L157.9,99.9L159.0,98.0L160.1,96.1L161.3,94.3L162.4,92.4L163.5,90.7L164.6,90.7L165.7,90.7L166.8,90.7L168.0,90.7L169.1,90.7L170.2,90.7L171.3,90.7L172.4,90.7L173.5,90.7L174.6,90.7L175.8,90.7L176.9,90.7L178.0,90.7L179.1,90.7L180.2,90.7L181.3,90.7L182.5,90.7L183.6,90.7L184.7,90.7L185.8,90.7L186.9,90.7L188.0,90.7L189.2,90.7L190.3,90.7L191.4,90.7L192.5,90.7L193.6,90.7L194.7,90.7L195.8,90.7L197.0,90.7L198.1,90.7L199.2,90.7L200.3,90.7L201.4,91.6L202.5,94.0L203.7,96.4L204.8,98.7L205.9,101.1L207.0,103.4L208.1,105.8L209.2,108.2L210.4,110.5L211.5,112.9L212.6,115.2L213.7,117.6L214.8,119.9L215.9,122.3L217.0,125.2L218.2,128.9L219.3,132.7L220.4,136.5L221.5,140.2L222.6,144.0L223.7,147.7L224.9,151.4L226.0,155.2L227.1,158.8L228.2,162.6L229.3,166.3L230.4,170.0L231.6,173.7L232.7,177.3L233.8,181.0L234.9,183.7L236.0,185.1L237.1,186.5L238.2,187.9L239.4,189.3L240.5,190.7L241.6,192.1L242.7,193.5L243.8,194.9L244.9,196.3L246.1,197.7L247.2,199.1L248.3,201.0L249.4,203.6L250.5,205.7L251.6,206.9L252.8,208.2L253.9,209.4L255.0,210.7L256.1,212.0L257.2,213.2L258.3,214.5L259.4,215.7L260.6,216.9L261.7,218.2L262.8,219.4L263.9,220.7L265.0,221.9L266.1,223.2L267.3,224.4L268.4,225.7L269.5,226.9L270.6,228.1L271.7,229.4L272.8,230.6L274.0,231.8L275.1,233.1L276.2,234.3L277.3,235.6L278.4,236.8L279.5,238.0L280.6,239.3L281.8,240.0L282.9,240.0L284.0,240.0L285.1,240.0L286.2,240.0L287.3,240.0L288.5,240.0L289.6,240.0L290.7,240.0L291.8,240.0L292.9,240.0L294.0,240.0L295.2,240.0L296.3,240.0L297.4,240.0L298.5,240.0L299.6,240.0L300.7,240.0L301.8,240.0L303.0,240.0L304.1,240.0L305.2,240.0L306.3,240.0L307.4,240.0L308.5,240.0L309.7,240.0L310.8,240.0L311.9,240.0L313.0,240.0L314.1,240.0L315.2,240.0L316.4,240.0L317.5,240.0L318.6,240.0L319.7,240.0L320.8,240.0L321.9,240.0L323.0,240.0L324.2,240.0L325.3,240.0L326.4,240.0L327.5,240.0L328.6,240.0L329.7,240.0L330.9,240.0L332.0,240.0L333.1,240.0L334.2,240.0L335.3,240.0L336.4,240.0L337.6,240.0L338.7,240.0L339.8,240.0L340.9,240.0L342.0,240.0L343.1,240.0L344.2,240.0L345.4,240.0L346.5,240.0L347.6,240.0L348.7,240.0L349.8,240.0L350.9,240.0L352.1,240.0L353.2,240.0L354.3,240.0L355.4,240.0L356.5,240.0L357.6,240.0L358.8,240.0L359.9,240.0L361.0,240.0L362.1,240.0L363.2,240.0L364.3,240.0L365.4,240.0L366.6,240.0L367.7,240.0L368.8,240.0L369.9,240.0L371.0,240.0L372.1,240.0L373.3,240.0L374.4,240.0L375.5,240.0L376.6,240.0L377.7,240.0L378.8,240.0L379.9,240.0L381.1,240.0L382.2,240.0L383.3,240.0L384.4,240.0L385.5,240.0L386.6,240.0L387.8,240.0L388.9,240.0L390.0,240.0L391.1,240.0L392.2,240.0L393.3,240.0L394.5,240.0L395.6,240.0L396.7,239.9L397.8,239.8L398.9,239.6L400.0,239.5L401.1,239.3L402.3,239.2L403.4,239.0L404.5,238.9L405.6,238.7L406.7,238.5L407.8,238.4L409.0,238.2L410.1,238.1L411.2,237.9L412.3,237.8L413.4,237.6L414.5,237.5L415.7,237.3L416.8,237.1L417.9,237.0L419.0,236.8L420.1,236.7L421.2,236.5L422.3,236.4L423.5,236.2L424.6,236.1L425.7,235.9L426.8,235.7L427.9,235.6L429.0,235.4L430.2,235.3L431.3,235.3L432.4,235.3L433.5,235.3L434.6,235.3L435.7,235.3L436.9,235.3L438.0,235.3L439.1,235.3L440.2,235.3L441.3,235.3L442.4,235.3L443.5,235.3L444.7,235.3L445.8,235.3L446.9,235.3L448.0,235.3L449.1,235.3L450.2,235.3L451.4,235.3L452.5,235.3L453.6,235.3L454.7,235.3L455.8,235.3L456.9,235.3L458.1,235.3L459.2,235.3L460.3,235.3L461.4,235.3L462.5,235.3L463.6,235.3L464.7,235.3L465.9,235.3L467.0,235.3L468.1,235.3L469.2,235.3L470.3,235.3L471.4,235.3L472.6,235.3L473.7,235.3L474.8,235.3L475.9,235.3L477.0,235.3L478.1,235.3L479.3,235.3L480.4,235.3L481.5,235.3L482.6,235.3L483.7,235.3L484.8,235.3L485.9,235.3L487.1,235.3L488.2,235.3L489.3,235.3L490.4,235.4L491.5,235.5L492.6,235.7L493.8,235.8L494.9,236.0L496.0,236.2L497.1,236.3L498.2,236.5L499.3,236.6L500.5,236.8L501.6,236.9L502.7,237.1L503.8,237.5L504.9,237.8L506.0,238.1L507.1,238.3L508.3,238.5L509.4,238.6L510.5,238.8L511.6,239.0L512.7,239.1L513.8,239.3L515.0,239.4L516.1,239.6L517.2,239.7L518.3,239.9L519.4,240.0L520.5,240.2L521.7,240.4L522.8,240.5L523.9,240.6L525.0,240.6L526.1,240.6L527.2,240.6L528.3,240.6L529.5,240.6L530.6,240.7L531.7,240.8L532.8,241.0L533.9,241.1L535.0,241.3L536.2,241.4L537.3,241.4L538.4,241.4L539.5,241.4L540.6,241.5L541.7,241.6L542.9,241.8L544.0,241.9L545.1,242.1L546.2,242.3L547.3,242.6L548.4,242.9L549.5,243.2L550.7,243.5L551.8,243.8L552.9,244.2L554.0,244.5L555.1,244.8L556.2,245.1L557.4,245.4L558.5,245.7L559.6,246.0L560.7,246.3L561.8,246.6L562.9,247.0L564.1,247.2L565.2,247.4L566.3,247.5L567.4,247.7L568.5,247.8L569.6,248.0L570.7,248.1L571.9,248.3L573.0,248.5L574.1,248.6L575.2,248.8L576.3,248.9L577.4,249.1L578.6,249.2L579.7,249.3L580.8,249.3L581.9,249.3L583.0,249.3L584.1,249.3L585.2,249.3L586.4,249.3L587.5,249.3L588.6,249.3L589.7,249.3L590.8,249.3L591.9,249.3L593.1,249.3L594.2,249.3L595.3,249.3L596.4,249.3L597.5,249.3L598.6,249.3L599.8,249.3L600.9,249.3L602.0,249.3L603.1,249.3L604.2,249.3L605.3,249.3L606.4,249.3L607.6,249.3L608.7,249.3L609.8,249.3L610.9,249.3L612.0,249.3L613.1,249.3L614.3,249.3L615.4,249.3L616.5,249.3L617.6,249.3L618.7,249.3L619.8,249.3L621.0,249.3L622.1,249.3L623.2,249.3L624.3,249.3L625.4,249.3L626.5,249.3L627.6,249.3L628.8,249.3L629.9,249.3L631.0,249.3L632.1,249.3L633.2,249.3L634.3,249.3L635.5,249.3L636.6,249.3L637.7,249.3L638.8,249.4L639.9,249.5L641.0,249.7L642.2,249.9L643.3,250.0L644.4,250.2L645.5,250.3L646.6,250.5L647.7,250.6L648.8,250.8L650.0,250.9L651.1,251.1L652.2,251.3L653.3,251.4L654.4,251.6L655.5,251.7L656.7,251.9L657.8,252.0L658.9,252.2L660.0,252.3L661.1,252.5L662.2,252.7L663.4,252.8L664.5,253.0L665.6,253.1L666.7,253.3L667.8,253.4L668.9,253.6L670.0,253.7L671.2,253.9L672.3,254.0L673.4,254.0L674.5,254.0L675.6,254.0L676.7,254.0L677.9,254.0L679.0,254.0L680.1,254.0L681.2,254.0L682.3,254.0L683.4,254.0L684.6,254.0L685.7,254.0L686.8,254.0L687.9,254.0L689.0,254.1L690.1,254.2L691.2,254.2L692.4,254.3L693.5,254.3L694.6,254.4L695.7,254.5L696.8,254.5L697.9,254.6L699.1,254.6L700.2,254.7L701.3,254.8L702.4,254.8L703.5,254.9L704.6,255.0L705.8,255.0L706.9,255.1L708.0,255.1L709.1,255.2L710.2,255.3L711.3,255.3L712.4,255.4L713.6,255.5L714.7,255.5L715.8,255.6L716.9,255.6L718.0,255.7L719.1,255.8L720.3,255.8L721.4,255.9L722.5,255.9L723.6,255.9L724.7,255.9L725.8,255.9L727.0,255.9L728.1,255.9L729.2,256.0L730.3,256.0L731.4,256.0L732.5,256.1L733.6,256.1L734.8,256.1L735.9,256.2L737.0,256.2L738.1,256.2L739.2,256.3L740.3,256.3L741.5,256.3L742.6,256.3L743.7,256.4L744.8,256.4L745.9,256.4L747.0,256.5L748.2,256.5L749.3,256.5L750.4,256.6L751.5,256.6L752.6,256.6L753.7,256.7L754.8,256.7L756.0,256.7L757.1,256.7L758.2,256.8L759.3,256.8L760.4,256.8L761.5,256.8L762.7,256.8L763.8,256.8L764.9,256.8L766.0,256.8L767.1,256.8L768.2,256.8L769.4,256.8L770.5,256.8L771.6,256.8L772.7,256.8L773.8,256.8L774.9,256.8L776.0,256.8L777.2,256.8L778.3,256.8L779.4,256.8L780.5,256.8L781.6,256.8L782.7,256.8L783.9,256.8L785.0,256.8L786.1,256.8L787.2,256.8L788.3,256.8L789.4,256.8L790.5,256.8L791.7,256.9L792.8,256.9L793.9,257.0L795.0,257.0L796.1,257.1L797.2,257.1L798.4,257.2L799.5,257.2L800.6,257.3L801.7,257.3L802.8,257.4L803.9,257.4L805.1,257.5L806.2,257.5L807.3,257.6L808.4,257.6L809.5,257.7L810.6,257.7L811.7,257.8L812.9,257.8L814.0,257.9L815.1,257.9L816.2,258.0L817.3,258.0L818.4,258.1L819.6,258.1L820.7,258.2L821.8,258.2L822.9,258.3L824.0,258.3L825.1,258.3L826.3,258.3L827.4,258.3L828.5,258.3L829.6,258.3L830.7,258.3L831.8,258.3L832.9,258.3L834.1,258.3L835.2,258.3L836.3,258.3L837.4,258.3L838.5,258.2L839.6,258.2L840.8,258.1L841.9,258.1L843.0,258.0L844.1,258.0L845.2,257.9L846.3,257.9L847.5,257.8L848.6,257.8L849.7,257.7L850.8,257.7L851.9,257.6L853.0,257.6L854.1,257.5L855.3,257.5L856.4,257.4L857.5,257.4L858.6,257.3L859.7,257.3L860.8,257.2L862.0,257.2L863.1,257.1L864.2,257.1L865.3,257.0L866.4,257.0L867.5,256.9L868.7,256.9L869.8,256.8L870.9,256.8L872.0,256.8"/>
  <text class="footer" x="72" y="372">source: variant of queries/02_apy_realized.sql (30d window per day) · susds-indexer · generated 2026-10-04T09:50:36.777Z · watermark block 26,118,117</text>
</svg>
