<svg xmlns="http://www.w3.org/2000/svg" width="920" height="380" viewBox="0 0 920 380">
  <style>
  text { font-family: ui-sans-serif, system-ui, sans-serif; font-size: 12px; fill: #768390; }
  .title { font-size: 15px; font-weight: 600; fill: #768390; }
  .footer { font-size: 10px; fill: #768390; opacity: 0.85; }
  .axis { stroke: #768390; stroke-width: 1; }
  .grid { stroke: #768390; stroke-width: 0.5; opacity: 0.25; }
  .line { stroke: #4493f8; stroke-width: 1.8; fill: none; }
  .pos { fill: #3fb950; }
  .neg { fill: #f85149; }
  @media (prefers-color-scheme: dark) {
    text, .title, .footer { fill: #9198a1; }
  }
</style>
  <text class="title" x="72" y="24">Realized APY, trailing 30 days</text>
  <text transform="rotate(-90)" x="-184" y="16" text-anchor="middle">% APY</text>
  <line class="grid" x1="72" x2="872" y1="324.0" y2="324.0"/>
  <line class="grid" x1="72" x2="872" y1="230.7" y2="230.7"/>
  <line class="grid" x1="72" x2="872" y1="137.3" y2="137.3"/>
  <line class="grid" x1="72" x2="872" y1="44.0" y2="44.0"/>
  <line class="axis" x1="72" x2="872" y1="324.0" y2="324.0"/>
  <text x="64" y="328.0" text-anchor="end">0%</text>
  <text x="64" y="234.7" text-anchor="end">5%</text>
  <text x="64" y="141.3" text-anchor="end">10%</text>
  <text x="64" y="48.0" text-anchor="end">15%</text>
  <text x="165.0" y="342" text-anchor="middle">Jan '25</text>
  <text x="275.1" y="342" text-anchor="middle">Apr '25</text>
  <text x="386.4" y="342" text-anchor="middle">Jul '25</text>
  <text x="498.9" y="342" text-anchor="middle">Oct '25</text>
  <text x="611.4" y="342" text-anchor="middle">Jan '26</text>
  <text x="721.5" y="342" text-anchor="middle">Apr '26</text>
  <text x="832.9" y="342" text-anchor="middle">Jul '26</text>
  <path class="line" d="M72.0,205.7L73.2,205.6L74.4,205.4L75.7,205.3L76.9,205.1L78.1,204.9L79.3,204.8L80.6,204.6L81.8,204.5L83.0,204.3L84.2,204.2L85.5,204.0L86.7,203.9L87.9,203.7L89.1,203.5L90.3,203.4L91.6,203.2L92.8,203.1L94.0,202.9L95.2,202.8L96.5,202.7L97.7,202.7L98.9,202.7L100.1,202.7L101.4,202.7L102.6,202.7L103.8,202.7L105.0,202.7L106.3,202.7L107.5,202.7L108.7,202.7L109.9,202.7L111.1,202.3L112.4,200.9L113.6,199.7L114.8,198.6L116.0,197.2L117.3,196.1L118.5,194.8L119.7,193.5L120.9,192.4L122.2,191.0L123.4,189.8L124.6,188.6L125.8,187.1L127.0,185.3L128.3,183.5L129.5,181.5L130.7,179.6L131.9,177.8L133.2,175.9L134.4,174.0L135.6,172.0L136.8,168.3L138.1,164.6L139.3,161.0L140.5,157.3L141.7,153.5L142.9,150.0L144.2,146.1L145.4,142.6L146.6,138.8L147.8,135.4L149.1,132.8L150.3,130.3L151.5,128.0L152.7,125.3L154.0,123.0L155.2,120.6L156.4,117.9L157.6,115.5L158.9,112.9L160.1,110.3L161.3,107.9L162.5,105.6L163.7,103.7L165.0,101.8L166.2,99.9L167.4,98.0L168.6,96.1L169.9,94.3L171.1,92.4L172.3,90.7L173.5,90.7L174.8,90.7L176.0,90.7L177.2,90.7L178.4,90.7L179.6,90.7L180.9,90.7L182.1,90.7L183.3,90.7L184.5,90.7L185.8,90.7L187.0,90.7L188.2,90.7L189.4,90.7L190.7,90.7L191.9,90.7L193.1,90.7L194.3,90.7L195.5,90.7L196.8,90.7L198.0,90.7L199.2,90.7L200.4,90.7L201.7,90.7L202.9,90.7L204.1,90.7L205.3,90.7L206.6,90.7L207.8,90.7L209.0,90.7L210.2,90.7L211.4,90.7L212.7,90.7L213.9,91.6L215.1,94.0L216.3,96.4L217.6,98.7L218.8,101.1L220.0,103.4L221.2,105.8L222.5,108.2L223.7,110.5L224.9,112.9L226.1,115.2L227.4,117.6L228.6,119.9L229.8,122.3L231.0,125.2L232.2,128.9L233.5,132.7L234.7,136.5L235.9,140.2L237.1,144.0L238.4,147.7L239.6,151.4L240.8,155.2L242.0,158.8L243.3,162.6L244.5,166.3L245.7,170.0L246.9,173.7L248.1,177.3L249.4,181.0L250.6,183.7L251.8,185.1L253.0,186.5L254.3,187.9L255.5,189.3L256.7,190.7L257.9,192.1L259.2,193.5L260.4,194.9L261.6,196.3L262.8,197.7L264.0,199.1L265.3,201.0L266.5,203.6L267.7,205.7L268.9,206.9L270.2,208.2L271.4,209.4L272.6,210.7L273.8,212.0L275.1,213.2L276.3,214.5L277.5,215.7L278.7,216.9L280.0,218.2L281.2,219.4L282.4,220.7L283.6,221.9L284.8,223.2L286.1,224.4L287.3,225.7L288.5,226.9L289.7,228.1L291.0,229.4L292.2,230.6L293.4,231.8L294.6,233.1L295.9,234.3L297.1,235.6L298.3,236.8L299.5,238.0L300.7,239.3L302.0,240.0L303.2,240.0L304.4,240.0L305.6,240.0L306.9,240.0L308.1,240.0L309.3,240.0L310.5,240.0L311.8,240.0L313.0,240.0L314.2,240.0L315.4,240.0L316.6,240.0L317.9,240.0L319.1,240.0L320.3,240.0L321.5,240.0L322.8,240.0L324.0,240.0L325.2,240.0L326.4,240.0L327.7,240.0L328.9,240.0L330.1,240.0L331.3,240.0L332.6,240.0L333.8,240.0L335.0,240.0L336.2,240.0L337.4,240.0L338.7,240.0L339.9,240.0L341.1,240.0L342.3,240.0L343.6,240.0L344.8,240.0L346.0,240.0L347.2,240.0L348.5,240.0L349.7,240.0L350.9,240.0L352.1,240.0L353.3,240.0L354.6,240.0L355.8,240.0L357.0,240.0L358.2,240.0L359.5,240.0L360.7,240.0L361.9,240.0L363.1,240.0L364.4,240.0L365.6,240.0L366.8,240.0L368.0,240.0L369.2,240.0L370.5,240.0L371.7,240.0L372.9,240.0L374.1,240.0L375.4,240.0L376.6,240.0L377.8,240.0L379.0,240.0L380.3,240.0L381.5,240.0L382.7,240.0L383.9,240.0L385.1,240.0L386.4,240.0L387.6,240.0L388.8,240.0L390.0,240.0L391.3,240.0L392.5,240.0L393.7,240.0L394.9,240.0L396.2,240.0L397.4,240.0L398.6,240.0L399.8,240.0L401.1,240.0L402.3,240.0L403.5,240.0L404.7,240.0L405.9,240.0L407.2,240.0L408.4,240.0L409.6,240.0L410.8,240.0L412.1,240.0L413.3,240.0L414.5,240.0L415.7,240.0L417.0,240.0L418.2,240.0L419.4,240.0L420.6,240.0L421.8,240.0L423.1,240.0L424.3,240.0L425.5,240.0L426.7,240.0L428.0,239.9L429.2,239.8L430.4,239.6L431.6,239.5L432.9,239.3L434.1,239.2L435.3,239.0L436.5,238.9L437.7,238.7L439.0,238.5L440.2,238.4L441.4,238.2L442.6,238.1L443.9,237.9L445.1,237.8L446.3,237.6L447.5,237.5L448.8,237.3L450.0,237.1L451.2,237.0L452.4,236.8L453.7,236.7L454.9,236.5L456.1,236.4L457.3,236.2L458.5,236.1L459.8,235.9L461.0,235.7L462.2,235.6L463.4,235.4L464.7,235.3L465.9,235.3L467.1,235.3L468.3,235.3L469.6,235.3L470.8,235.3L472.0,235.3L473.2,235.3L474.4,235.3L475.7,235.3L476.9,235.3L478.1,235.3L479.3,235.3L480.6,235.3L481.8,235.3L483.0,235.3L484.2,235.3L485.5,235.3L486.7,235.3L487.9,235.3L489.1,235.3L490.3,235.3L491.6,235.3L492.8,235.3L494.0,235.3L495.2,235.3L496.5,235.3L497.7,235.3L498.9,235.3L500.1,235.3L501.4,235.3L502.6,235.3L503.8,235.3L505.0,235.3L506.3,235.3L507.5,235.3L508.7,235.3L509.9,235.3L511.1,235.3L512.4,235.3L513.6,235.3L514.8,235.3L516.0,235.3L517.3,235.3L518.5,235.3L519.7,235.3L520.9,235.3L522.2,235.3L523.4,235.3L524.6,235.3L525.8,235.3L527.0,235.3L528.3,235.3L529.5,235.3L530.7,235.4L531.9,235.5L533.2,235.7L534.4,235.8L535.6,236.0L536.8,236.2L538.1,236.3L539.3,236.5L540.5,236.6L541.7,236.8L542.9,236.9L544.2,237.1L545.4,237.5L546.6,237.8L547.8,238.1L549.1,238.3L550.3,238.5L551.5,238.6L552.7,238.8L554.0,239.0L555.2,239.1L556.4,239.3L557.6,239.4L558.9,239.6L560.1,239.7L561.3,239.9L562.5,240.0L563.7,240.2L565.0,240.4L566.2,240.5L567.4,240.6L568.6,240.6L569.9,240.6L571.1,240.6L572.3,240.6L573.5,240.6L574.8,240.7L576.0,240.8L577.2,241.0L578.4,241.1L579.6,241.3L580.9,241.4L582.1,241.4L583.3,241.4L584.5,241.4L585.8,241.5L587.0,241.6L588.2,241.8L589.4,241.9L590.7,242.1L591.9,242.3L593.1,242.6L594.3,242.9L595.5,243.2L596.8,243.5L598.0,243.8L599.2,244.2L600.4,244.5L601.7,244.8L602.9,245.1L604.1,245.4L605.3,245.7L606.6,246.0L607.8,246.3L609.0,246.6L610.2,247.0L611.4,247.2L612.7,247.4L613.9,247.5L615.1,247.7L616.3,247.8L617.6,248.0L618.8,248.1L620.0,248.3L621.2,248.5L622.5,248.6L623.7,248.8L624.9,248.9L626.1,249.1L627.4,249.2L628.6,249.3L629.8,249.3L631.0,249.3L632.2,249.3L633.5,249.3L634.7,249.3L635.9,249.3L637.1,249.3L638.4,249.3L639.6,249.3L640.8,249.3L642.0,249.3L643.3,249.3L644.5,249.3L645.7,249.3L646.9,249.3L648.1,249.3L649.4,249.3L650.6,249.3L651.8,249.3L653.0,249.3L654.3,249.3L655.5,249.3L656.7,249.3L657.9,249.3L659.2,249.3L660.4,249.3L661.6,249.3L662.8,249.3L664.0,249.3L665.3,249.3L666.5,249.3L667.7,249.3L668.9,249.3L670.2,249.3L671.4,249.3L672.6,249.3L673.8,249.3L675.1,249.3L676.3,249.3L677.5,249.3L678.7,249.3L680.0,249.3L681.2,249.3L682.4,249.3L683.6,249.3L684.8,249.3L686.1,249.3L687.3,249.3L688.5,249.3L689.7,249.3L691.0,249.3L692.2,249.3L693.4,249.4L694.6,249.5L695.9,249.7L697.1,249.9L698.3,250.0L699.5,250.2L700.7,250.3L702.0,250.5L703.2,250.6L704.4,250.8L705.6,250.9L706.9,251.1L708.1,251.3L709.3,251.4L710.5,251.6L711.8,251.7L713.0,251.9L714.2,252.0L715.4,252.2L716.6,252.3L717.9,252.5L719.1,252.7L720.3,252.8L721.5,253.0L722.8,253.1L724.0,253.3L725.2,253.4L726.4,253.6L727.7,253.7L728.9,253.9L730.1,254.0L731.3,254.0L732.6,254.0L733.8,254.0L735.0,254.0L736.2,254.0L737.4,254.0L738.7,254.0L739.9,254.0L741.1,254.0L742.3,254.0L743.6,254.0L744.8,254.0L746.0,254.0L747.2,254.0L748.5,254.1L749.7,254.2L750.9,254.2L752.1,254.3L753.3,254.3L754.6,254.4L755.8,254.5L757.0,254.5L758.2,254.6L759.5,254.6L760.7,254.7L761.9,254.8L763.1,254.8L764.4,254.9L765.6,255.0L766.8,255.0L768.0,255.1L769.2,255.1L770.5,255.2L771.7,255.3L772.9,255.3L774.1,255.4L775.4,255.5L776.6,255.5L777.8,255.6L779.0,255.6L780.3,255.7L781.5,255.8L782.7,255.8L783.9,255.9L785.1,255.9L786.4,255.9L787.6,255.9L788.8,255.9L790.0,255.9L791.3,255.9L792.5,256.0L793.7,256.0L794.9,256.0L796.2,256.1L797.4,256.1L798.6,256.1L799.8,256.2L801.1,256.2L802.3,256.2L803.5,256.3L804.7,256.3L805.9,256.3L807.2,256.3L808.4,256.4L809.6,256.4L810.8,256.4L812.1,256.5L813.3,256.5L814.5,256.5L815.7,256.6L817.0,256.6L818.2,256.6L819.4,256.7L820.6,256.7L821.8,256.7L823.1,256.7L824.3,256.8L825.5,256.8L826.7,256.8L828.0,256.8L829.2,256.8L830.4,256.8L831.6,256.8L832.9,256.8L834.1,256.8L835.3,256.8L836.5,256.8L837.7,256.8L839.0,256.8L840.2,256.8L841.4,256.8L842.6,256.8L843.9,256.8L845.1,256.8L846.3,256.8L847.5,256.8L848.8,256.8L850.0,256.8L851.2,256.8L852.4,256.8L853.7,256.8L854.9,256.8L856.1,256.8L857.3,256.8L858.5,256.8L859.8,256.8L861.0,256.9L862.2,256.9L863.4,257.0L864.7,257.0L865.9,257.1L867.1,257.1L868.3,257.2L869.6,257.2L870.8,257.3L872.0,257.3"/>
  <text class="footer" x="72" y="372">source: variant of queries/02_apy_realized.sql (30d window per day) · susds-indexer · generated 2026-08-02T06:13:07.995Z · watermark block 25,665,244</text>
</svg>
