<svg xmlns="http://www.w3.org/2000/svg" width="920" height="380" viewBox="0 0 920 380">
  <style>
  text { font-family: ui-sans-serif, system-ui, sans-serif; font-size: 12px; fill: #768390; }
  .title { font-size: 15px; font-weight: 600; fill: #768390; }
  .footer { font-size: 10px; fill: #768390; opacity: 0.85; }
  .axis { stroke: #768390; stroke-width: 1; }
  .grid { stroke: #768390; stroke-width: 0.5; opacity: 0.25; }
  .line { stroke: #4493f8; stroke-width: 1.8; fill: none; }
  .pos { fill: #3fb950; }
  .neg { fill: #f85149; }
  @media (prefers-color-scheme: dark) {
    text, .title, .footer { fill: #9198a1; }
  }
</style>
  <text class="title" x="72" y="24">Realized APY, trailing 30 days</text>
  <text transform="rotate(-90)" x="-184" y="16" text-anchor="middle">% APY</text>
  <line class="grid" x1="72" x2="872" y1="324.0" y2="324.0"/>
  <line class="grid" x1="72" x2="872" y1="230.7" y2="230.7"/>
  <line class="grid" x1="72" x2="872" y1="137.3" y2="137.3"/>
  <line class="grid" x1="72" x2="872" y1="44.0" y2="44.0"/>
  <line class="axis" x1="72" x2="872" y1="324.0" y2="324.0"/>
  <text x="64" y="328.0" text-anchor="end">0%</text>
  <text x="64" y="234.7" text-anchor="end">5%</text>
  <text x="64" y="141.3" text-anchor="end">10%</text>
  <text x="64" y="48.0" text-anchor="end">15%</text>
  <text x="166.3" y="342" text-anchor="middle">Jan '25</text>
  <text x="277.9" y="342" text-anchor="middle">Apr '25</text>
  <text x="390.8" y="342" text-anchor="middle">Jul '25</text>
  <text x="504.9" y="342" text-anchor="middle">Oct '25</text>
  <text x="619.0" y="342" text-anchor="middle">Jan '26</text>
  <text x="730.6" y="342" text-anchor="middle">Apr '26</text>
  <text x="843.5" y="342" text-anchor="middle">Jul '26</text>
  <path class="line" d="M72.0,205.7L73.2,205.6L74.5,205.4L75.7,205.3L77.0,205.1L78.2,204.9L79.4,204.8L80.7,204.6L81.9,204.5L83.2,204.3L84.4,204.2L85.6,204.0L86.9,203.9L88.1,203.7L89.4,203.5L90.6,203.4L91.8,203.2L93.1,203.1L94.3,202.9L95.6,202.8L96.8,202.7L98.0,202.7L99.3,202.7L100.5,202.7L101.8,202.7L103.0,202.7L104.2,202.7L105.5,202.7L106.7,202.7L108.0,202.7L109.2,202.7L110.4,202.7L111.7,202.3L112.9,200.9L114.2,199.7L115.4,198.6L116.7,197.2L117.9,196.1L119.1,194.8L120.4,193.5L121.6,192.4L122.9,191.0L124.1,189.8L125.3,188.6L126.6,187.1L127.8,185.3L129.1,183.5L130.3,181.5L131.5,179.6L132.8,177.8L134.0,175.9L135.3,174.0L136.5,172.0L137.7,168.3L139.0,164.6L140.2,161.0L141.5,157.3L142.7,153.5L143.9,150.0L145.2,146.1L146.4,142.6L147.7,138.8L148.9,135.4L150.1,132.8L151.4,130.3L152.6,128.0L153.9,125.3L155.1,123.0L156.3,120.6L157.6,117.9L158.8,115.5L160.1,112.9L161.3,110.3L162.5,107.9L163.8,105.6L165.0,103.7L166.3,101.8L167.5,99.9L168.7,98.0L170.0,96.1L171.2,94.3L172.5,92.4L173.7,90.7L174.9,90.7L176.2,90.7L177.4,90.7L178.7,90.7L179.9,90.7L181.1,90.7L182.4,90.7L183.6,90.7L184.9,90.7L186.1,90.7L187.3,90.7L188.6,90.7L189.8,90.7L191.1,90.7L192.3,90.7L193.6,90.7L194.8,90.7L196.0,90.7L197.3,90.7L198.5,90.7L199.8,90.7L201.0,90.7L202.2,90.7L203.5,90.7L204.7,90.7L206.0,90.7L207.2,90.7L208.4,90.7L209.7,90.7L210.9,90.7L212.2,90.7L213.4,90.7L214.6,90.7L215.9,91.6L217.1,94.0L218.4,96.4L219.6,98.7L220.8,101.1L222.1,103.4L223.3,105.8L224.6,108.2L225.8,110.5L227.0,112.9L228.3,115.2L229.5,117.6L230.8,119.9L232.0,122.3L233.2,125.2L234.5,128.9L235.7,132.7L237.0,136.5L238.2,140.2L239.4,144.0L240.7,147.7L241.9,151.4L243.2,155.2L244.4,158.8L245.6,162.6L246.9,166.3L248.1,170.0L249.4,173.7L250.6,177.3L251.8,181.0L253.1,183.7L254.3,185.1L255.6,186.5L256.8,187.9L258.0,189.3L259.3,190.7L260.5,192.1L261.8,193.5L263.0,194.9L264.2,196.3L265.5,197.7L266.7,199.1L268.0,201.0L269.2,203.6L270.4,205.7L271.7,206.9L272.9,208.2L274.2,209.4L275.4,210.7L276.7,212.0L277.9,213.2L279.1,214.5L280.4,215.7L281.6,216.9L282.9,218.2L284.1,219.4L285.3,220.7L286.6,221.9L287.8,223.2L289.1,224.4L290.3,225.7L291.5,226.9L292.8,228.1L294.0,229.4L295.3,230.6L296.5,231.8L297.7,233.1L299.0,234.3L300.2,235.6L301.5,236.8L302.7,238.0L303.9,239.3L305.2,240.0L306.4,240.0L307.7,240.0L308.9,240.0L310.1,240.0L311.4,240.0L312.6,240.0L313.9,240.0L315.1,240.0L316.3,240.0L317.6,240.0L318.8,240.0L320.1,240.0L321.3,240.0L322.5,240.0L323.8,240.0L325.0,240.0L326.3,240.0L327.5,240.0L328.7,240.0L330.0,240.0L331.2,240.0L332.5,240.0L333.7,240.0L334.9,240.0L336.2,240.0L337.4,240.0L338.7,240.0L339.9,240.0L341.1,240.0L342.4,240.0L343.6,240.0L344.9,240.0L346.1,240.0L347.3,240.0L348.6,240.0L349.8,240.0L351.1,240.0L352.3,240.0L353.6,240.0L354.8,240.0L356.0,240.0L357.3,240.0L358.5,240.0L359.8,240.0L361.0,240.0L362.2,240.0L363.5,240.0L364.7,240.0L366.0,240.0L367.2,240.0L368.4,240.0L369.7,240.0L370.9,240.0L372.2,240.0L373.4,240.0L374.6,240.0L375.9,240.0L377.1,240.0L378.4,240.0L379.6,240.0L380.8,240.0L382.1,240.0L383.3,240.0L384.6,240.0L385.8,240.0L387.0,240.0L388.3,240.0L389.5,240.0L390.8,240.0L392.0,240.0L393.2,240.0L394.5,240.0L395.7,240.0L397.0,240.0L398.2,240.0L399.4,240.0L400.7,240.0L401.9,240.0L403.2,240.0L404.4,240.0L405.6,240.0L406.9,240.0L408.1,240.0L409.4,240.0L410.6,240.0L411.8,240.0L413.1,240.0L414.3,240.0L415.6,240.0L416.8,240.0L418.0,240.0L419.3,240.0L420.5,240.0L421.8,240.0L423.0,240.0L424.2,240.0L425.5,240.0L426.7,240.0L428.0,240.0L429.2,240.0L430.4,240.0L431.7,240.0L432.9,239.9L434.2,239.8L435.4,239.6L436.7,239.5L437.9,239.3L439.1,239.2L440.4,239.0L441.6,238.9L442.9,238.7L444.1,238.5L445.3,238.4L446.6,238.2L447.8,238.1L449.1,237.9L450.3,237.8L451.5,237.6L452.8,237.5L454.0,237.3L455.3,237.1L456.5,237.0L457.7,236.8L459.0,236.7L460.2,236.5L461.5,236.4L462.7,236.2L463.9,236.1L465.2,235.9L466.4,235.7L467.7,235.6L468.9,235.4L470.1,235.3L471.4,235.3L472.6,235.3L473.9,235.3L475.1,235.3L476.3,235.3L477.6,235.3L478.8,235.3L480.1,235.3L481.3,235.3L482.5,235.3L483.8,235.3L485.0,235.3L486.3,235.3L487.5,235.3L488.7,235.3L490.0,235.3L491.2,235.3L492.5,235.3L493.7,235.3L494.9,235.3L496.2,235.3L497.4,235.3L498.7,235.3L499.9,235.3L501.1,235.3L502.4,235.3L503.6,235.3L504.9,235.3L506.1,235.3L507.3,235.3L508.6,235.3L509.8,235.3L511.1,235.3L512.3,235.3L513.6,235.3L514.8,235.3L516.0,235.3L517.3,235.3L518.5,235.3L519.8,235.3L521.0,235.3L522.2,235.3L523.5,235.3L524.7,235.3L526.0,235.3L527.2,235.3L528.4,235.3L529.7,235.3L530.9,235.3L532.2,235.3L533.4,235.3L534.6,235.3L535.9,235.3L537.1,235.4L538.4,235.5L539.6,235.7L540.8,235.8L542.1,236.0L543.3,236.2L544.6,236.3L545.8,236.5L547.0,236.6L548.3,236.8L549.5,236.9L550.8,237.1L552.0,237.5L553.2,237.8L554.5,238.1L555.7,238.3L557.0,238.5L558.2,238.6L559.4,238.8L560.7,239.0L561.9,239.1L563.2,239.3L564.4,239.4L565.6,239.6L566.9,239.7L568.1,239.9L569.4,240.0L570.6,240.2L571.8,240.4L573.1,240.5L574.3,240.6L575.6,240.6L576.8,240.6L578.0,240.6L579.3,240.6L580.5,240.6L581.8,240.7L583.0,240.8L584.2,241.0L585.5,241.1L586.7,241.3L588.0,241.4L589.2,241.4L590.4,241.4L591.7,241.4L592.9,241.5L594.2,241.6L595.4,241.8L596.7,241.9L597.9,242.1L599.1,242.3L600.4,242.6L601.6,242.9L602.9,243.2L604.1,243.5L605.3,243.8L606.6,244.2L607.8,244.5L609.1,244.8L610.3,245.1L611.5,245.4L612.8,245.7L614.0,246.0L615.3,246.3L616.5,246.6L617.7,247.0L619.0,247.2L620.2,247.4L621.5,247.5L622.7,247.7L623.9,247.8L625.2,248.0L626.4,248.1L627.7,248.3L628.9,248.5L630.1,248.6L631.4,248.8L632.6,248.9L633.9,249.1L635.1,249.2L636.3,249.3L637.6,249.3L638.8,249.3L640.1,249.3L641.3,249.3L642.5,249.3L643.8,249.3L645.0,249.3L646.3,249.3L647.5,249.3L648.7,249.3L650.0,249.3L651.2,249.3L652.5,249.3L653.7,249.3L654.9,249.3L656.2,249.3L657.4,249.3L658.7,249.3L659.9,249.3L661.1,249.3L662.4,249.3L663.6,249.3L664.9,249.3L666.1,249.3L667.3,249.3L668.6,249.3L669.8,249.3L671.1,249.3L672.3,249.3L673.6,249.3L674.8,249.3L676.0,249.3L677.3,249.3L678.5,249.3L679.8,249.3L681.0,249.3L682.2,249.3L683.5,249.3L684.7,249.3L686.0,249.3L687.2,249.3L688.4,249.3L689.7,249.3L690.9,249.3L692.2,249.3L693.4,249.3L694.6,249.3L695.9,249.3L697.1,249.3L698.4,249.3L699.6,249.3L700.8,249.3L702.1,249.4L703.3,249.5L704.6,249.7L705.8,249.9L707.0,250.0L708.3,250.2L709.5,250.3L710.8,250.5L712.0,250.6L713.2,250.8L714.5,250.9L715.7,251.1L717.0,251.3L718.2,251.4L719.4,251.6L720.7,251.7L721.9,251.9L723.2,252.0L724.4,252.2L725.6,252.3L726.9,252.5L728.1,252.7L729.4,252.8L730.6,253.0L731.8,253.1L733.1,253.3L734.3,253.4L735.6,253.6L736.8,253.7L738.0,253.9L739.3,254.0L740.5,254.0L741.8,254.0L743.0,254.0L744.2,254.0L745.5,254.0L746.7,254.0L748.0,254.0L749.2,254.0L750.4,254.0L751.7,254.0L752.9,254.0L754.2,254.0L755.4,254.0L756.7,254.0L757.9,254.1L759.1,254.2L760.4,254.2L761.6,254.3L762.9,254.3L764.1,254.4L765.3,254.5L766.6,254.5L767.8,254.6L769.1,254.6L770.3,254.7L771.5,254.8L772.8,254.8L774.0,254.9L775.3,255.0L776.5,255.0L777.7,255.1L779.0,255.1L780.2,255.2L781.5,255.3L782.7,255.3L783.9,255.4L785.2,255.5L786.4,255.5L787.7,255.6L788.9,255.6L790.1,255.7L791.4,255.8L792.6,255.8L793.9,255.9L795.1,255.9L796.3,255.9L797.6,255.9L798.8,255.9L800.1,255.9L801.3,255.9L802.5,256.0L803.8,256.0L805.0,256.0L806.3,256.1L807.5,256.1L808.7,256.1L810.0,256.2L811.2,256.2L812.5,256.2L813.7,256.3L814.9,256.3L816.2,256.3L817.4,256.3L818.7,256.4L819.9,256.4L821.1,256.4L822.4,256.5L823.6,256.5L824.9,256.5L826.1,256.6L827.3,256.6L828.6,256.6L829.8,256.7L831.1,256.7L832.3,256.7L833.6,256.7L834.8,256.8L836.0,256.8L837.3,256.8L838.5,256.8L839.8,256.8L841.0,256.8L842.2,256.8L843.5,256.8L844.7,256.8L846.0,256.8L847.2,256.8L848.4,256.8L849.7,256.8L850.9,256.8L852.2,256.8L853.4,256.8L854.6,256.8L855.9,256.8L857.1,256.8L858.4,256.8L859.6,256.8L860.8,256.8L862.1,256.8L863.3,256.8L864.6,256.8L865.8,256.8L867.0,256.8L868.3,256.8L869.5,256.8L870.8,256.8L872.0,256.8"/>
  <text class="footer" x="72" y="372">source: variant of queries/02_apy_realized.sql (30d window per day) · susds-indexer · generated 2026-07-24T06:05:29.446Z · watermark block 25,600,610</text>
</svg>
