<svg xmlns="http://www.w3.org/2000/svg" width="920" height="380" viewBox="0 0 920 380">
  <style>
  text { font-family: ui-sans-serif, system-ui, sans-serif; font-size: 12px; fill: #768390; }
  .title { font-size: 15px; font-weight: 600; fill: #768390; }
  .footer { font-size: 10px; fill: #768390; opacity: 0.85; }
  .axis { stroke: #768390; stroke-width: 1; }
  .grid { stroke: #768390; stroke-width: 0.5; opacity: 0.25; }
  .line { stroke: #4493f8; stroke-width: 1.8; fill: none; }
  .pos { fill: #3fb950; }
  .neg { fill: #f85149; }
  @media (prefers-color-scheme: dark) {
    text, .title, .footer { fill: #9198a1; }
  }
</style>
  <text class="title" x="72" y="24">Realized APY, trailing 30 days</text>
  <text transform="rotate(-90)" x="-184" y="16" text-anchor="middle">% APY</text>
  <line class="grid" x1="72" x2="872" y1="324.0" y2="324.0"/>
  <line class="grid" x1="72" x2="872" y1="230.7" y2="230.7"/>
  <line class="grid" x1="72" x2="872" y1="137.3" y2="137.3"/>
  <line class="grid" x1="72" x2="872" y1="44.0" y2="44.0"/>
  <line class="axis" x1="72" x2="872" y1="324.0" y2="324.0"/>
  <text x="64" y="328.0" text-anchor="end">0%</text>
  <text x="64" y="234.7" text-anchor="end">5%</text>
  <text x="64" y="141.3" text-anchor="end">10%</text>
  <text x="64" y="48.0" text-anchor="end">15%</text>
  <text x="165.7" y="342" text-anchor="middle">Jan '25</text>
  <text x="276.6" y="342" text-anchor="middle">Apr '25</text>
  <text x="388.8" y="342" text-anchor="middle">Jul '25</text>
  <text x="502.2" y="342" text-anchor="middle">Oct '25</text>
  <text x="615.6" y="342" text-anchor="middle">Jan '26</text>
  <text x="726.5" y="342" text-anchor="middle">Apr '26</text>
  <text x="838.7" y="342" text-anchor="middle">Jul '26</text>
  <path class="line" d="M72.0,205.7L73.2,205.6L74.5,205.4L75.7,205.3L76.9,205.1L78.2,204.9L79.4,204.8L80.6,204.6L81.9,204.5L83.1,204.3L84.3,204.2L85.6,204.0L86.8,203.9L88.0,203.7L89.3,203.5L90.5,203.4L91.7,203.2L93.0,203.1L94.2,202.9L95.4,202.8L96.7,202.7L97.9,202.7L99.1,202.7L100.4,202.7L101.6,202.7L102.8,202.7L104.0,202.7L105.3,202.7L106.5,202.7L107.7,202.7L109.0,202.7L110.2,202.7L111.4,202.3L112.7,200.9L113.9,199.7L115.1,198.6L116.4,197.2L117.6,196.1L118.8,194.8L120.1,193.5L121.3,192.4L122.5,191.0L123.8,189.8L125.0,188.6L126.2,187.1L127.5,185.3L128.7,183.5L129.9,181.5L131.2,179.6L132.4,177.8L133.6,175.9L134.9,174.0L136.1,172.0L137.3,168.3L138.6,164.6L139.8,161.0L141.0,157.3L142.3,153.5L143.5,150.0L144.7,146.1L146.0,142.6L147.2,138.8L148.4,135.4L149.7,132.8L150.9,130.3L152.1,128.0L153.4,125.3L154.6,123.0L155.8,120.6L157.1,117.9L158.3,115.5L159.5,112.9L160.8,110.3L162.0,107.9L163.2,105.6L164.4,103.7L165.7,101.8L166.9,99.9L168.1,98.0L169.4,96.1L170.6,94.3L171.8,92.4L173.1,90.7L174.3,90.7L175.5,90.7L176.8,90.7L178.0,90.7L179.2,90.7L180.5,90.7L181.7,90.7L182.9,90.7L184.2,90.7L185.4,90.7L186.6,90.7L187.9,90.7L189.1,90.7L190.3,90.7L191.6,90.7L192.8,90.7L194.0,90.7L195.3,90.7L196.5,90.7L197.7,90.7L199.0,90.7L200.2,90.7L201.4,90.7L202.7,90.7L203.9,90.7L205.1,90.7L206.4,90.7L207.6,90.7L208.8,90.7L210.1,90.7L211.3,90.7L212.5,90.7L213.8,90.7L215.0,91.6L216.2,94.0L217.5,96.4L218.7,98.7L219.9,101.1L221.2,103.4L222.4,105.8L223.6,108.2L224.9,110.5L226.1,112.9L227.3,115.2L228.5,117.6L229.8,119.9L231.0,122.3L232.2,125.2L233.5,128.9L234.7,132.7L235.9,136.5L237.2,140.2L238.4,144.0L239.6,147.7L240.9,151.4L242.1,155.2L243.3,158.8L244.6,162.6L245.8,166.3L247.0,170.0L248.3,173.7L249.5,177.3L250.7,181.0L252.0,183.7L253.2,185.1L254.4,186.5L255.7,187.9L256.9,189.3L258.1,190.7L259.4,192.1L260.6,193.5L261.8,194.9L263.1,196.3L264.3,197.7L265.5,199.1L266.8,201.0L268.0,203.6L269.2,205.7L270.5,206.9L271.7,208.2L272.9,209.4L274.2,210.7L275.4,212.0L276.6,213.2L277.9,214.5L279.1,215.7L280.3,216.9L281.6,218.2L282.8,219.4L284.0,220.7L285.3,221.9L286.5,223.2L287.7,224.4L288.9,225.7L290.2,226.9L291.4,228.1L292.6,229.4L293.9,230.6L295.1,231.8L296.3,233.1L297.6,234.3L298.8,235.6L300.0,236.8L301.3,238.0L302.5,239.3L303.7,240.0L305.0,240.0L306.2,240.0L307.4,240.0L308.7,240.0L309.9,240.0L311.1,240.0L312.4,240.0L313.6,240.0L314.8,240.0L316.1,240.0L317.3,240.0L318.5,240.0L319.8,240.0L321.0,240.0L322.2,240.0L323.5,240.0L324.7,240.0L325.9,240.0L327.2,240.0L328.4,240.0L329.6,240.0L330.9,240.0L332.1,240.0L333.3,240.0L334.6,240.0L335.8,240.0L337.0,240.0L338.3,240.0L339.5,240.0L340.7,240.0L342.0,240.0L343.2,240.0L344.4,240.0L345.7,240.0L346.9,240.0L348.1,240.0L349.3,240.0L350.6,240.0L351.8,240.0L353.0,240.0L354.3,240.0L355.5,240.0L356.7,240.0L358.0,240.0L359.2,240.0L360.4,240.0L361.7,240.0L362.9,240.0L364.1,240.0L365.4,240.0L366.6,240.0L367.8,240.0L369.1,240.0L370.3,240.0L371.5,240.0L372.8,240.0L374.0,240.0L375.2,240.0L376.5,240.0L377.7,240.0L378.9,240.0L380.2,240.0L381.4,240.0L382.6,240.0L383.9,240.0L385.1,240.0L386.3,240.0L387.6,240.0L388.8,240.0L390.0,240.0L391.3,240.0L392.5,240.0L393.7,240.0L395.0,240.0L396.2,240.0L397.4,240.0L398.7,240.0L399.9,240.0L401.1,240.0L402.4,240.0L403.6,240.0L404.8,240.0L406.1,240.0L407.3,240.0L408.5,240.0L409.8,240.0L411.0,240.0L412.2,240.0L413.4,240.0L414.7,240.0L415.9,240.0L417.1,240.0L418.4,240.0L419.6,240.0L420.8,240.0L422.1,240.0L423.3,240.0L424.5,240.0L425.8,240.0L427.0,240.0L428.2,240.0L429.5,240.0L430.7,239.9L431.9,239.8L433.2,239.6L434.4,239.5L435.6,239.3L436.9,239.2L438.1,239.0L439.3,238.9L440.6,238.7L441.8,238.5L443.0,238.4L444.3,238.2L445.5,238.1L446.7,237.9L448.0,237.8L449.2,237.6L450.4,237.5L451.7,237.3L452.9,237.1L454.1,237.0L455.4,236.8L456.6,236.7L457.8,236.5L459.1,236.4L460.3,236.2L461.5,236.1L462.8,235.9L464.0,235.7L465.2,235.6L466.5,235.4L467.7,235.3L468.9,235.3L470.2,235.3L471.4,235.3L472.6,235.3L473.8,235.3L475.1,235.3L476.3,235.3L477.5,235.3L478.8,235.3L480.0,235.3L481.2,235.3L482.5,235.3L483.7,235.3L484.9,235.3L486.2,235.3L487.4,235.3L488.6,235.3L489.9,235.3L491.1,235.3L492.3,235.3L493.6,235.3L494.8,235.3L496.0,235.3L497.3,235.3L498.5,235.3L499.7,235.3L501.0,235.3L502.2,235.3L503.4,235.3L504.7,235.3L505.9,235.3L507.1,235.3L508.4,235.3L509.6,235.3L510.8,235.3L512.1,235.3L513.3,235.3L514.5,235.3L515.8,235.3L517.0,235.3L518.2,235.3L519.5,235.3L520.7,235.3L521.9,235.3L523.2,235.3L524.4,235.3L525.6,235.3L526.9,235.3L528.1,235.3L529.3,235.3L530.6,235.3L531.8,235.3L533.0,235.3L534.2,235.4L535.5,235.5L536.7,235.7L537.9,235.8L539.2,236.0L540.4,236.2L541.6,236.3L542.9,236.5L544.1,236.6L545.3,236.8L546.6,236.9L547.8,237.1L549.0,237.5L550.3,237.8L551.5,238.1L552.7,238.3L554.0,238.5L555.2,238.6L556.4,238.8L557.7,239.0L558.9,239.1L560.1,239.3L561.4,239.4L562.6,239.6L563.8,239.7L565.1,239.9L566.3,240.0L567.5,240.2L568.8,240.4L570.0,240.5L571.2,240.6L572.5,240.6L573.7,240.6L574.9,240.6L576.2,240.6L577.4,240.6L578.6,240.7L579.9,240.8L581.1,241.0L582.3,241.1L583.6,241.3L584.8,241.4L586.0,241.4L587.3,241.4L588.5,241.4L589.7,241.5L591.0,241.6L592.2,241.8L593.4,241.9L594.7,242.1L595.9,242.3L597.1,242.6L598.3,242.9L599.6,243.2L600.8,243.5L602.0,243.8L603.3,244.2L604.5,244.5L605.7,244.8L607.0,245.1L608.2,245.4L609.4,245.7L610.7,246.0L611.9,246.3L613.1,246.6L614.4,247.0L615.6,247.2L616.8,247.4L618.1,247.5L619.3,247.7L620.5,247.8L621.8,248.0L623.0,248.1L624.2,248.3L625.5,248.5L626.7,248.6L627.9,248.8L629.2,248.9L630.4,249.1L631.6,249.2L632.9,249.3L634.1,249.3L635.3,249.3L636.6,249.3L637.8,249.3L639.0,249.3L640.3,249.3L641.5,249.3L642.7,249.3L644.0,249.3L645.2,249.3L646.4,249.3L647.7,249.3L648.9,249.3L650.1,249.3L651.4,249.3L652.6,249.3L653.8,249.3L655.1,249.3L656.3,249.3L657.5,249.3L658.7,249.3L660.0,249.3L661.2,249.3L662.4,249.3L663.7,249.3L664.9,249.3L666.1,249.3L667.4,249.3L668.6,249.3L669.8,249.3L671.1,249.3L672.3,249.3L673.5,249.3L674.8,249.3L676.0,249.3L677.2,249.3L678.5,249.3L679.7,249.3L680.9,249.3L682.2,249.3L683.4,249.3L684.6,249.3L685.9,249.3L687.1,249.3L688.3,249.3L689.6,249.3L690.8,249.3L692.0,249.3L693.3,249.3L694.5,249.3L695.7,249.3L697.0,249.3L698.2,249.4L699.4,249.5L700.7,249.7L701.9,249.9L703.1,250.0L704.4,250.2L705.6,250.3L706.8,250.5L708.1,250.6L709.3,250.8L710.5,250.9L711.8,251.1L713.0,251.3L714.2,251.4L715.5,251.6L716.7,251.7L717.9,251.9L719.1,252.0L720.4,252.2L721.6,252.3L722.8,252.5L724.1,252.7L725.3,252.8L726.5,253.0L727.8,253.1L729.0,253.3L730.2,253.4L731.5,253.6L732.7,253.7L733.9,253.9L735.2,254.0L736.4,254.0L737.6,254.0L738.9,254.0L740.1,254.0L741.3,254.0L742.6,254.0L743.8,254.0L745.0,254.0L746.3,254.0L747.5,254.0L748.7,254.0L750.0,254.0L751.2,254.0L752.4,254.0L753.7,254.1L754.9,254.2L756.1,254.2L757.4,254.3L758.6,254.3L759.8,254.4L761.1,254.5L762.3,254.5L763.5,254.6L764.8,254.6L766.0,254.7L767.2,254.8L768.5,254.8L769.7,254.9L770.9,255.0L772.2,255.0L773.4,255.1L774.6,255.1L775.9,255.2L777.1,255.3L778.3,255.3L779.6,255.4L780.8,255.5L782.0,255.5L783.2,255.6L784.5,255.6L785.7,255.7L786.9,255.8L788.2,255.8L789.4,255.9L790.6,255.9L791.9,255.9L793.1,255.9L794.3,255.9L795.6,255.9L796.8,255.9L798.0,256.0L799.3,256.0L800.5,256.0L801.7,256.1L803.0,256.1L804.2,256.1L805.4,256.2L806.7,256.2L807.9,256.2L809.1,256.3L810.4,256.3L811.6,256.3L812.8,256.3L814.1,256.4L815.3,256.4L816.5,256.4L817.8,256.5L819.0,256.5L820.2,256.5L821.5,256.6L822.7,256.6L823.9,256.6L825.2,256.7L826.4,256.7L827.6,256.7L828.9,256.7L830.1,256.8L831.3,256.8L832.6,256.8L833.8,256.8L835.0,256.8L836.3,256.8L837.5,256.8L838.7,256.8L840.0,256.8L841.2,256.8L842.4,256.8L843.6,256.8L844.9,256.8L846.1,256.8L847.3,256.8L848.6,256.8L849.8,256.8L851.0,256.8L852.3,256.8L853.5,256.8L854.7,256.8L856.0,256.8L857.2,256.8L858.4,256.8L859.7,256.8L860.9,256.8L862.1,256.8L863.4,256.8L864.6,256.8L865.8,256.8L867.1,256.9L868.3,256.9L869.5,257.0L870.8,257.0L872.0,257.0"/>
  <text class="footer" x="72" y="372">source: variant of queries/02_apy_realized.sql (30d window per day) · susds-indexer · generated 2026-07-28T06:04:42.323Z · watermark block 25,629,328</text>
</svg>
