<svg xmlns="http://www.w3.org/2000/svg" width="920" height="380" viewBox="0 0 920 380">
  <style>
  text { font-family: ui-sans-serif, system-ui, sans-serif; font-size: 12px; fill: #768390; }
  .title { font-size: 15px; font-weight: 600; fill: #768390; }
  .footer { font-size: 10px; fill: #768390; opacity: 0.85; }
  .axis { stroke: #768390; stroke-width: 1; }
  .grid { stroke: #768390; stroke-width: 0.5; opacity: 0.25; }
  .line { stroke: #4493f8; stroke-width: 1.8; fill: none; }
  .pos { fill: #3fb950; }
  .neg { fill: #f85149; }
  @media (prefers-color-scheme: dark) {
    text, .title, .footer { fill: #9198a1; }
  }
</style>
  <text class="title" x="72" y="24">Realized APY, trailing 30 days</text>
  <text transform="rotate(-90)" x="-184" y="16" text-anchor="middle">% APY</text>
  <line class="grid" x1="72" x2="872" y1="324.0" y2="324.0"/>
  <line class="grid" x1="72" x2="872" y1="230.7" y2="230.7"/>
  <line class="grid" x1="72" x2="872" y1="137.3" y2="137.3"/>
  <line class="grid" x1="72" x2="872" y1="44.0" y2="44.0"/>
  <line class="axis" x1="72" x2="872" y1="324.0" y2="324.0"/>
  <text x="64" y="328.0" text-anchor="end">0%</text>
  <text x="64" y="234.7" text-anchor="end">5%</text>
  <text x="64" y="141.3" text-anchor="end">10%</text>
  <text x="64" y="48.0" text-anchor="end">15%</text>
  <text x="166.4" y="342" text-anchor="middle">Jan '25</text>
  <text x="278.5" y="342" text-anchor="middle">Apr '25</text>
  <text x="391.9" y="342" text-anchor="middle">Jul '25</text>
  <text x="506.6" y="342" text-anchor="middle">Oct '25</text>
  <text x="621.2" y="342" text-anchor="middle">Jan '26</text>
  <text x="733.4" y="342" text-anchor="middle">Apr '26</text>
  <text x="846.8" y="342" text-anchor="middle">Jul '26</text>
  <path class="line" d="M72.0,205.7L73.2,205.5L74.5,205.4L75.7,205.2L77.0,205.1L78.2,204.9L79.5,204.7L80.7,204.6L82.0,204.4L83.2,204.3L84.5,204.1L85.7,204.0L87.0,203.8L88.2,203.7L89.4,203.5L90.7,203.4L91.9,203.2L93.2,203.0L94.4,202.9L95.7,202.7L96.9,202.7L98.2,202.7L99.4,202.7L100.7,202.7L101.9,202.7L103.2,202.7L104.4,202.7L105.6,202.7L106.9,202.7L108.1,202.7L109.4,202.7L110.6,202.7L111.9,201.9L113.1,200.6L114.4,199.4L115.6,198.1L116.9,197.0L118.1,195.8L119.4,194.5L120.6,193.2L121.8,192.0L123.1,190.9L124.3,189.5L125.6,188.3L126.8,186.7L128.1,184.8L129.3,182.9L130.6,181.2L131.8,179.2L133.1,177.4L134.3,175.5L135.6,173.7L136.8,171.3L138.0,167.4L139.3,163.9L140.5,160.0L141.8,156.4L143.0,152.6L144.3,148.8L145.5,145.1L146.8,141.5L148.0,137.7L149.3,134.8L150.5,132.2L151.8,129.7L153.0,127.2L154.2,124.9L155.5,122.4L156.7,119.9L158.0,117.2L159.2,114.9L160.5,112.6L161.7,109.7L163.0,107.2L164.2,105.2L165.5,103.3L166.7,101.3L168.0,99.6L169.2,97.6L170.4,95.7L171.7,93.8L172.9,92.0L174.2,90.7L175.4,90.7L176.7,90.7L177.9,90.7L179.2,90.7L180.4,90.7L181.7,90.7L182.9,90.7L184.1,90.7L185.4,90.7L186.6,90.7L187.9,90.7L189.1,90.7L190.4,90.7L191.6,90.7L192.9,90.7L194.1,90.7L195.4,90.7L196.6,90.7L197.9,90.7L199.1,90.7L200.3,90.7L201.6,90.7L202.8,90.7L204.1,90.7L205.3,90.7L206.6,90.7L207.8,90.7L209.1,90.7L210.3,90.7L211.6,90.7L212.8,90.7L214.1,90.7L215.3,90.7L216.5,92.2L217.8,94.6L219.0,97.0L220.3,99.3L221.5,101.7L222.8,104.1L224.0,106.4L225.3,108.8L226.5,111.1L227.8,113.5L229.0,115.8L230.3,118.2L231.5,120.5L232.7,122.8L234.0,126.1L235.2,129.9L236.5,133.7L237.7,137.4L239.0,141.1L240.2,144.9L241.5,148.6L242.7,152.4L244.0,156.1L245.2,159.7L246.5,163.5L247.7,167.2L248.9,170.9L250.2,174.6L251.4,178.3L252.7,181.9L253.9,184.1L255.2,185.5L256.4,186.9L257.7,188.3L258.9,189.7L260.2,191.1L261.4,192.5L262.7,193.9L263.9,195.3L265.1,196.6L266.4,198.0L267.6,199.4L268.9,201.6L270.1,204.3L271.4,206.0L272.6,207.3L273.9,208.5L275.1,209.8L276.4,211.0L277.6,212.3L278.9,213.5L280.1,214.8L281.3,216.0L282.6,217.3L283.8,218.5L285.1,219.8L286.3,221.0L287.6,222.2L288.8,223.5L290.1,224.7L291.3,226.0L292.6,227.2L293.8,228.4L295.1,229.7L296.3,230.9L297.5,232.2L298.8,233.4L300.0,234.6L301.3,235.9L302.5,237.1L303.8,238.4L305.0,239.6L306.3,240.0L307.5,240.0L308.8,240.0L310.0,240.0L311.3,240.0L312.5,240.0L313.7,240.0L315.0,240.0L316.2,240.0L317.5,240.0L318.7,240.0L320.0,240.0L321.2,240.0L322.5,240.0L323.7,240.0L325.0,240.0L326.2,240.0L327.5,240.0L328.7,240.0L329.9,240.0L331.2,240.0L332.4,240.0L333.7,240.0L334.9,240.0L336.2,240.0L337.4,240.0L338.7,240.0L339.9,240.0L341.2,240.0L342.4,240.0L343.7,240.0L344.9,240.0L346.1,240.0L347.4,240.0L348.6,240.0L349.9,240.0L351.1,240.0L352.4,240.0L353.6,240.0L354.9,240.0L356.1,240.0L357.4,240.0L358.6,240.0L359.9,240.0L361.1,240.0L362.3,240.0L363.6,240.0L364.8,240.0L366.1,240.0L367.3,240.0L368.6,240.0L369.8,240.0L371.1,240.0L372.3,240.0L373.6,240.0L374.8,240.0L376.0,240.0L377.3,240.0L378.5,240.0L379.8,240.0L381.0,240.0L382.3,240.0L383.5,240.0L384.8,240.0L386.0,240.0L387.3,240.0L388.5,240.0L389.8,240.0L391.0,240.0L392.2,240.0L393.5,240.0L394.7,240.0L396.0,240.0L397.2,240.0L398.5,240.0L399.7,240.0L401.0,240.0L402.2,240.0L403.5,240.0L404.7,240.0L406.0,240.0L407.2,240.0L408.4,240.0L409.7,240.0L410.9,240.0L412.2,240.0L413.4,240.0L414.7,240.0L415.9,240.0L417.2,240.0L418.4,240.0L419.7,240.0L420.9,240.0L422.2,240.0L423.4,240.0L424.6,240.0L425.9,240.0L427.1,240.0L428.4,240.0L429.6,240.0L430.9,240.0L432.1,240.0L433.4,240.0L434.6,239.9L435.9,239.7L437.1,239.6L438.4,239.4L439.6,239.3L440.8,239.1L442.1,239.0L443.3,238.8L444.6,238.7L445.8,238.5L447.1,238.3L448.3,238.2L449.6,238.0L450.8,237.9L452.1,237.7L453.3,237.6L454.6,237.4L455.8,237.3L457.0,237.1L458.3,236.9L459.5,236.8L460.8,236.6L462.0,236.5L463.3,236.3L464.5,236.2L465.8,236.0L467.0,235.9L468.3,235.7L469.5,235.5L470.8,235.4L472.0,235.3L473.2,235.3L474.5,235.3L475.7,235.3L477.0,235.3L478.2,235.3L479.5,235.3L480.7,235.3L482.0,235.3L483.2,235.3L484.5,235.3L485.7,235.3L487.0,235.3L488.2,235.3L489.4,235.3L490.7,235.3L491.9,235.3L493.2,235.3L494.4,235.3L495.7,235.3L496.9,235.3L498.2,235.3L499.4,235.3L500.7,235.3L501.9,235.3L503.2,235.3L504.4,235.3L505.6,235.3L506.9,235.3L508.1,235.3L509.4,235.3L510.6,235.3L511.9,235.3L513.1,235.3L514.4,235.3L515.6,235.3L516.9,235.3L518.1,235.3L519.4,235.3L520.6,235.3L521.8,235.3L523.1,235.3L524.3,235.3L525.6,235.3L526.8,235.3L528.1,235.3L529.3,235.3L530.6,235.3L531.8,235.3L533.1,235.3L534.3,235.3L535.6,235.3L536.8,235.3L538.0,235.3L539.3,235.4L540.5,235.6L541.8,235.7L543.0,235.9L544.3,236.0L545.5,236.2L546.8,236.4L548.0,236.5L549.3,236.7L550.5,236.8L551.8,237.0L553.0,237.2L554.2,237.5L555.5,237.8L556.7,238.2L558.0,238.4L559.2,238.5L560.5,238.7L561.7,238.8L563.0,239.0L564.2,239.2L565.5,239.3L566.7,239.5L568.0,239.6L569.2,239.8L570.4,239.9L571.7,240.1L572.9,240.2L574.2,240.4L575.4,240.6L576.7,240.6L577.9,240.6L579.2,240.6L580.4,240.6L581.7,240.6L582.9,240.6L584.1,240.7L585.4,240.9L586.6,241.0L587.9,241.2L589.1,241.3L590.4,241.4L591.6,241.4L592.9,241.4L594.1,241.4L595.4,241.5L596.6,241.7L597.9,241.8L599.1,242.0L600.3,242.1L601.6,242.4L602.8,242.7L604.1,243.0L605.3,243.3L606.6,243.6L607.8,243.9L609.1,244.2L610.3,244.5L611.6,244.9L612.8,245.2L614.1,245.5L615.3,245.8L616.5,246.1L617.8,246.4L619.0,246.7L620.3,247.0L621.5,247.3L622.8,247.4L624.0,247.6L625.3,247.7L626.5,247.9L627.8,248.0L629.0,248.2L630.3,248.3L631.5,248.5L632.7,248.7L634.0,248.8L635.2,249.0L636.5,249.1L637.7,249.3L639.0,249.3L640.2,249.3L641.5,249.3L642.7,249.3L644.0,249.3L645.2,249.3L646.5,249.3L647.7,249.3L648.9,249.3L650.2,249.3L651.4,249.3L652.7,249.3L653.9,249.3L655.2,249.3L656.4,249.3L657.7,249.3L658.9,249.3L660.2,249.3L661.4,249.3L662.7,249.3L663.9,249.3L665.1,249.3L666.4,249.3L667.6,249.3L668.9,249.3L670.1,249.3L671.4,249.3L672.6,249.3L673.9,249.3L675.1,249.3L676.4,249.3L677.6,249.3L678.9,249.3L680.1,249.3L681.3,249.3L682.6,249.3L683.8,249.3L685.1,249.3L686.3,249.3L687.6,249.3L688.8,249.3L690.1,249.3L691.3,249.3L692.6,249.3L693.8,249.3L695.1,249.3L696.3,249.3L697.5,249.3L698.8,249.3L700.0,249.3L701.3,249.3L702.5,249.3L703.8,249.3L705.0,249.4L706.3,249.6L707.5,249.7L708.8,249.9L710.0,250.0L711.3,250.2L712.5,250.4L713.7,250.5L715.0,250.7L716.2,250.8L717.5,251.0L718.7,251.1L720.0,251.3L721.2,251.4L722.5,251.6L723.7,251.8L725.0,251.9L726.2,252.1L727.5,252.2L728.7,252.4L729.9,252.5L731.2,252.7L732.4,252.8L733.7,253.0L734.9,253.2L736.2,253.3L737.4,253.5L738.7,253.6L739.9,253.8L741.2,253.9L742.4,254.0L743.7,254.0L744.9,254.0L746.1,254.0L747.4,254.0L748.6,254.0L749.9,254.0L751.1,254.0L752.4,254.0L753.6,254.0L754.9,254.0L756.1,254.0L757.4,254.0L758.6,254.0L759.9,254.0L761.1,254.1L762.3,254.2L763.6,254.2L764.8,254.3L766.1,254.4L767.3,254.4L768.6,254.5L769.8,254.5L771.1,254.6L772.3,254.7L773.6,254.7L774.8,254.8L776.0,254.9L777.3,254.9L778.5,255.0L779.8,255.0L781.0,255.1L782.3,255.2L783.5,255.2L784.8,255.3L786.0,255.3L787.3,255.4L788.5,255.5L789.8,255.5L791.0,255.6L792.2,255.7L793.5,255.7L794.7,255.8L796.0,255.8L797.2,255.9L798.5,255.9L799.7,255.9L801.0,255.9L802.2,255.9L803.5,255.9L804.7,255.9L806.0,256.0L807.2,256.0L808.4,256.0L809.7,256.1L810.9,256.1L812.2,256.1L813.4,256.2L814.7,256.2L815.9,256.2L817.2,256.3L818.4,256.3L819.7,256.3L820.9,256.4L822.2,256.4L823.4,256.4L824.6,256.4L825.9,256.5L827.1,256.5L828.4,256.5L829.6,256.6L830.9,256.6L832.1,256.6L833.4,256.7L834.6,256.7L835.9,256.7L837.1,256.8L838.4,256.8L839.6,256.8L840.8,256.8L842.1,256.8L843.3,256.8L844.6,256.8L845.8,256.8L847.1,256.8L848.3,256.8L849.6,256.8L850.8,256.8L852.1,256.8L853.3,256.8L854.6,256.8L855.8,256.8L857.0,256.8L858.3,256.8L859.5,256.8L860.8,256.8L862.0,256.8L863.3,256.8L864.5,256.8L865.8,256.8L867.0,256.8L868.3,256.8L869.5,256.8L870.8,256.8L872.0,256.8"/>
  <text class="footer" x="72" y="372">source: variant of queries/02_apy_realized.sql (30d window per day) · susds-indexer · generated 2026-07-22T00:33:44.065Z · watermark block 25,584,531</text>
</svg>
