<svg xmlns="http://www.w3.org/2000/svg" width="920" height="380" viewBox="0 0 920 380">
  <style>
  text { font-family: ui-sans-serif, system-ui, sans-serif; font-size: 12px; fill: #768390; }
  .title { font-size: 15px; font-weight: 600; fill: #768390; }
  .footer { font-size: 10px; fill: #768390; opacity: 0.85; }
  .axis { stroke: #768390; stroke-width: 1; }
  .grid { stroke: #768390; stroke-width: 0.5; opacity: 0.25; }
  .line { stroke: #4493f8; stroke-width: 1.8; fill: none; }
  .pos { fill: #3fb950; }
  .neg { fill: #f85149; }
  @media (prefers-color-scheme: dark) {
    text, .title, .footer { fill: #9198a1; }
  }
</style>
  <text class="title" x="72" y="24">sUSDS TVL — full history</text>
  <text transform="rotate(-90)" x="-184" y="16" text-anchor="middle">USDS</text>
  <line class="grid" x1="72" x2="872" y1="324.0" y2="324.0"/>
  <line class="grid" x1="72" x2="872" y1="254.0" y2="254.0"/>
  <line class="grid" x1="72" x2="872" y1="184.0" y2="184.0"/>
  <line class="grid" x1="72" x2="872" y1="114.0" y2="114.0"/>
  <line class="grid" x1="72" x2="872" y1="44.0" y2="44.0"/>
  <line class="axis" x1="72" x2="872" y1="324.0" y2="324.0"/>
  <text x="64" y="328.0" text-anchor="end">0</text>
  <text x="64" y="258.0" text-anchor="end">2B</text>
  <text x="64" y="188.0" text-anchor="end">4B</text>
  <text x="64" y="118.0" text-anchor="end">6B</text>
  <text x="64" y="48.0" text-anchor="end">8B</text>
  <text x="88.6" y="342" text-anchor="middle">Oct '24</text>
  <text x="197.6" y="342" text-anchor="middle">Jan '25</text>
  <text x="304.3" y="342" text-anchor="middle">Apr '25</text>
  <text x="412.1" y="342" text-anchor="middle">Jul '25</text>
  <text x="521.2" y="342" text-anchor="middle">Oct '25</text>
  <text x="630.2" y="342" text-anchor="middle">Jan '26</text>
  <text x="736.9" y="342" text-anchor="middle">Apr '26</text>
  <text x="844.7" y="342" text-anchor="middle">Jul '26</text>
  <path class="line" d="M72.0,324.0L73.2,323.9L74.4,323.3L75.6,323.1L76.7,323.1L77.9,322.9L79.1,322.8L80.3,322.7L81.5,322.2L82.7,322.6L83.9,322.5L85.0,322.4L86.2,322.6L87.4,322.5L88.6,307.9L89.8,307.6L91.0,307.2L92.1,306.9L93.3,306.9L94.5,306.9L95.7,307.0L96.9,306.6L98.1,306.7L99.3,306.7L100.4,306.4L101.6,306.1L102.8,306.0L104.0,306.2L105.2,306.1L106.4,305.4L107.6,304.7L108.7,304.4L109.9,304.3L111.1,304.2L112.3,302.8L113.5,302.6L114.7,301.9L115.9,305.2L117.0,306.5L118.2,306.4L119.4,306.3L120.6,305.9L121.8,305.4L123.0,306.7L124.1,306.6L125.3,306.8L126.5,306.8L127.7,306.5L128.9,306.3L130.1,301.8L131.3,303.5L132.4,303.9L133.6,303.8L134.8,303.6L136.0,303.6L137.2,308.5L138.4,310.7L139.6,310.6L140.7,310.7L141.9,310.6L143.1,310.1L144.3,310.4L145.5,310.5L146.7,310.5L147.9,311.1L149.0,311.1L150.2,311.7L151.4,311.0L152.6,311.6L153.8,312.6L155.0,312.6L156.1,312.6L157.3,312.1L158.5,313.3L159.7,308.1L160.9,306.8L162.1,307.8L163.3,308.0L164.4,308.1L165.6,308.2L166.8,308.0L168.0,307.7L169.2,307.6L170.4,307.8L171.6,307.5L172.7,307.0L173.9,306.7L175.1,306.7L176.3,306.0L177.5,306.0L178.7,305.6L179.9,305.5L181.0,305.7L182.2,305.9L183.4,305.0L184.6,304.5L185.8,303.5L187.0,303.3L188.1,300.5L189.3,300.0L190.5,302.4L191.7,302.0L192.9,301.9L194.1,303.3L195.3,300.5L196.4,300.4L197.6,302.9L198.8,296.3L200.0,287.3L201.2,286.5L202.4,287.9L203.6,286.0L204.7,289.7L205.9,288.3L207.1,288.0L208.3,285.9L209.5,285.7L210.7,281.8L211.9,280.7L213.0,277.4L214.2,274.4L215.4,277.6L216.6,279.5L217.8,282.6L219.0,282.7L220.1,282.6L221.3,279.4L222.5,274.7L223.7,266.0L224.9,273.3L226.1,270.4L227.3,270.5L228.4,269.5L229.6,266.4L230.8,264.1L232.0,263.0L233.2,264.6L234.4,264.3L235.6,265.3L236.7,263.6L237.9,244.0L239.1,234.0L240.3,225.2L241.5,215.2L242.7,212.2L243.9,211.8L245.0,211.2L246.2,209.9L247.4,210.4L248.6,209.4L249.8,208.7L251.0,207.9L252.1,207.3L253.3,207.1L254.5,201.0L255.7,204.2L256.9,214.6L258.1,226.4L259.3,225.9L260.4,224.9L261.6,216.0L262.8,220.2L264.0,222.6L265.2,222.3L266.4,219.9L267.6,220.0L268.7,219.9L269.9,217.0L271.1,218.2L272.3,210.7L273.5,209.3L274.7,208.8L275.9,208.6L277.0,208.6L278.2,207.1L279.4,205.0L280.6,203.0L281.8,201.2L283.0,201.9L284.1,201.6L285.3,201.3L286.5,201.3L287.7,200.6L288.9,200.8L290.1,204.7L291.3,209.6L292.4,209.5L293.6,209.7L294.8,206.1L296.0,209.6L297.2,211.0L298.4,217.4L299.6,220.2L300.7,220.2L301.9,220.2L303.1,219.8L304.3,220.0L305.5,219.9L306.7,218.9L307.9,218.2L309.0,217.7L310.2,217.9L311.4,217.5L312.6,217.6L313.8,219.6L315.0,218.9L316.1,237.2L317.3,237.1L318.5,237.2L319.7,237.1L320.9,237.0L322.1,235.9L323.3,235.6L324.4,235.6L325.6,235.5L326.8,236.3L328.0,235.2L329.2,236.4L330.4,236.3L331.6,234.6L332.7,231.3L333.9,231.0L335.1,231.0L336.3,223.9L337.5,223.3L338.7,223.5L339.9,222.9L341.0,215.0L342.2,215.2L343.4,220.7L344.6,225.8L345.8,230.0L347.0,228.6L348.1,217.9L349.3,222.7L350.5,224.3L351.7,224.0L352.9,238.9L354.1,246.7L355.3,247.2L356.4,247.8L357.6,247.8L358.8,242.5L360.0,247.1L361.2,246.8L362.4,240.4L363.6,246.8L364.7,245.7L365.9,261.2L367.1,261.1L368.3,255.2L369.5,250.4L370.7,249.6L371.9,249.7L373.0,249.1L374.2,247.5L375.4,247.3L376.6,245.7L377.8,238.7L379.0,235.7L380.1,238.1L381.3,237.6L382.5,236.8L383.7,233.8L384.9,234.0L386.1,238.0L387.3,240.5L388.4,240.6L389.6,241.4L390.8,244.7L392.0,239.5L393.2,245.3L394.4,241.7L395.6,240.7L396.7,240.1L397.9,233.9L399.1,239.2L400.3,239.3L401.5,240.7L402.7,236.5L403.9,235.6L405.0,245.1L406.2,245.3L407.4,239.4L408.6,244.4L409.8,242.3L411.0,246.2L412.1,241.5L413.3,247.8L414.5,250.0L415.7,246.6L416.9,241.4L418.1,246.3L419.3,246.3L420.4,246.2L421.6,247.2L422.8,242.7L424.0,247.4L425.2,250.5L426.4,251.1L427.6,260.1L428.7,262.6L429.9,261.9L431.1,260.5L432.3,264.9L433.5,265.6L434.7,265.7L435.9,265.5L437.0,264.9L438.2,265.4L439.4,266.4L440.6,266.1L441.8,265.9L443.0,266.3L444.1,266.2L445.3,261.2L446.5,265.4L447.7,260.9L448.9,267.0L450.1,266.9L451.3,266.0L452.4,265.8L453.6,262.7L454.8,262.5L456.0,263.2L457.2,262.7L458.4,262.0L459.6,262.0L460.7,262.2L461.9,263.1L463.1,259.3L464.3,260.8L465.5,262.1L466.7,261.5L467.9,261.7L469.0,262.9L470.2,262.9L471.4,261.9L472.6,263.3L473.8,264.1L475.0,264.4L476.1,264.1L477.3,264.3L478.5,261.6L479.7,261.2L480.9,260.9L482.1,259.6L483.3,259.5L484.4,258.9L485.6,259.7L486.8,259.2L488.0,258.2L489.2,256.8L490.4,257.8L491.6,256.4L492.7,256.5L493.9,256.9L495.1,256.7L496.3,257.0L497.5,256.6L498.7,259.2L499.9,253.5L501.0,254.3L502.2,254.5L503.4,250.3L504.6,255.7L505.8,255.8L507.0,255.8L508.1,256.8L509.3,256.9L510.5,257.0L511.7,254.3L512.9,251.6L514.1,258.0L515.3,250.3L516.4,250.3L517.6,242.3L518.8,252.3L520.0,251.6L521.2,254.4L522.4,245.1L523.6,253.5L524.7,253.6L525.9,246.0L527.1,253.9L528.3,253.0L529.5,253.0L530.7,252.5L531.9,253.5L533.0,253.5L534.2,241.4L535.4,242.3L536.6,239.6L537.8,235.8L539.0,242.4L540.1,240.7L541.3,239.7L542.5,239.4L543.7,241.8L544.9,210.9L546.1,202.9L547.3,211.1L548.4,215.0L549.6,213.6L550.8,213.5L552.0,213.6L553.2,212.3L554.4,212.1L555.6,202.8L556.7,215.2L557.9,211.0L559.1,211.0L560.3,202.9L561.5,200.9L562.7,202.2L563.9,202.7L565.0,196.5L566.2,198.0L567.4,197.9L568.6,203.9L569.8,203.4L571.0,202.4L572.1,202.0L573.3,201.0L574.5,200.5L575.7,201.1L576.9,200.8L578.1,201.5L579.3,204.4L580.4,206.8L581.6,207.4L582.8,200.2L584.0,200.0L585.2,201.9L586.4,198.4L587.6,197.1L588.7,196.8L589.9,195.3L591.1,193.6L592.3,182.8L593.5,187.9L594.7,187.6L595.9,185.6L597.0,187.2L598.2,187.4L599.4,186.9L600.6,187.2L601.8,186.1L603.0,181.6L604.1,181.4L605.3,163.5L606.5,163.6L607.7,161.8L608.9,172.3L610.1,170.9L611.3,169.7L612.4,169.6L613.6,170.2L614.8,158.1L616.0,168.3L617.2,168.1L618.4,167.8L619.6,176.4L620.7,176.7L621.9,176.3L623.1,180.4L624.3,180.7L625.5,180.6L626.7,184.5L627.9,187.2L629.0,191.7L630.2,190.1L631.4,176.8L632.6,175.5L633.8,174.2L635.0,172.0L636.1,171.1L637.3,169.1L638.5,166.8L639.7,173.6L640.9,174.0L642.1,175.4L643.3,174.3L644.4,182.6L645.6,182.3L646.8,183.8L648.0,184.3L649.2,184.3L650.4,184.4L651.6,172.7L652.7,173.4L653.9,181.5L655.1,182.6L656.3,183.6L657.5,184.4L658.7,184.3L659.9,187.9L661.0,186.2L662.2,185.7L663.4,182.9L664.6,183.7L665.8,180.9L667.0,181.1L668.1,183.9L669.3,178.1L670.5,178.1L671.7,176.7L672.9,171.3L674.1,169.1L675.3,169.3L676.4,166.7L677.6,168.9L678.8,164.8L680.0,164.3L681.2,164.6L682.4,163.9L683.6,163.6L684.7,160.1L685.9,159.1L687.1,158.4L688.3,157.0L689.5,156.7L690.7,156.4L691.9,156.6L693.0,156.5L694.2,156.1L695.4,154.8L696.6,154.7L697.8,153.5L699.0,149.3L700.1,149.1L701.3,149.1L702.5,161.6L703.7,161.8L704.9,131.1L706.1,131.8L707.3,124.8L708.4,122.6L709.6,118.8L710.8,118.2L712.0,117.7L713.2,118.5L714.4,116.4L715.6,116.6L716.7,116.8L717.9,116.4L719.1,116.1L720.3,105.4L721.5,110.3L722.7,108.8L723.9,101.1L725.0,104.2L726.2,105.5L727.4,104.9L728.6,107.4L729.8,111.5L731.0,111.8L732.1,111.2L733.3,105.8L734.5,103.3L735.7,98.2L736.9,104.8L738.1,99.0L739.3,98.5L740.4,98.7L741.6,98.4L742.8,115.4L744.0,108.7L745.2,107.9L746.4,108.1L747.6,108.3L748.7,107.9L749.9,105.4L751.1,113.8L752.3,112.2L753.5,112.0L754.7,112.3L755.9,111.0L757.0,116.5L758.2,131.2L759.4,132.8L760.6,130.2L761.8,131.7L763.0,149.1L764.1,149.1L765.3,146.5L766.5,145.3L767.7,144.2L768.9,143.4L770.1,162.2L771.3,139.5L772.4,139.8L773.6,123.9L774.8,124.2L776.0,128.3L777.2,127.9L778.4,130.0L779.6,128.7L780.7,158.1L781.9,127.9L783.1,122.6L784.3,126.2L785.5,127.1L786.7,126.9L787.9,126.2L789.0,122.4L790.2,122.4L791.4,122.5L792.6,116.0L793.8,117.8L795.0,130.6L796.1,135.8L797.3,116.0L798.5,116.1L799.7,116.4L800.9,106.8L802.1,116.7L803.3,119.6L804.4,117.4L805.6,117.9L806.8,118.1L808.0,118.2L809.2,119.1L810.4,120.7L811.6,119.8L812.7,113.0L813.9,114.1L815.1,113.9L816.3,115.4L817.5,117.3L818.7,118.0L819.9,118.7L821.0,120.3L822.2,117.7L823.4,118.7L824.6,118.3L825.8,118.4L827.0,128.0L828.1,128.5L829.3,128.8L830.5,128.0L831.7,127.8L832.9,127.9L834.1,127.9L835.3,128.4L836.4,128.2L837.6,128.3L838.8,129.6L840.0,129.4L841.2,129.7L842.4,130.1L843.6,130.6L844.7,131.3L845.9,138.9L847.1,137.0L848.3,137.6L849.5,137.7L850.7,138.6L851.9,143.3L853.0,148.1L854.2,149.8L855.4,148.7L856.6,148.8L857.8,149.8L859.0,166.5L860.1,169.4L861.3,168.6L862.5,167.7L863.7,168.2L864.9,166.9L866.1,168.2L867.3,168.2L868.4,168.7L869.6,169.9L870.8,170.0L872.0,159.5"/>
  <text class="footer" x="72" y="372">source: queries/01_tvl_daily.sql (executed verbatim) · susds-indexer · generated 2026-07-24T06:05:29.105Z · watermark block 25,600,610</text>
</svg>
