<svg xmlns="http://www.w3.org/2000/svg" width="920" height="380" viewBox="0 0 920 380">
  <style>
  text { font-family: ui-sans-serif, system-ui, sans-serif; font-size: 12px; fill: #768390; }
  .title { font-size: 15px; font-weight: 600; fill: #768390; }
  .footer { font-size: 10px; fill: #768390; opacity: 0.85; }
  .axis { stroke: #768390; stroke-width: 1; }
  .grid { stroke: #768390; stroke-width: 0.5; opacity: 0.25; }
  .line { stroke: #4493f8; stroke-width: 1.8; fill: none; }
  .pos { fill: #3fb950; }
  .neg { fill: #f85149; }
  @media (prefers-color-scheme: dark) {
    text, .title, .footer { fill: #9198a1; }
  }
</style>
  <text class="title" x="72" y="24">sUSDS TVL — full history</text>
  <text transform="rotate(-90)" x="-184" y="16" text-anchor="middle">USDS</text>
  <line class="grid" x1="72" x2="872" y1="324.0" y2="324.0"/>
  <line class="grid" x1="72" x2="872" y1="254.0" y2="254.0"/>
  <line class="grid" x1="72" x2="872" y1="184.0" y2="184.0"/>
  <line class="grid" x1="72" x2="872" y1="114.0" y2="114.0"/>
  <line class="grid" x1="72" x2="872" y1="44.0" y2="44.0"/>
  <line class="axis" x1="72" x2="872" y1="324.0" y2="324.0"/>
  <text x="64" y="328.0" text-anchor="end">0</text>
  <text x="64" y="258.0" text-anchor="end">2B</text>
  <text x="64" y="188.0" text-anchor="end">4B</text>
  <text x="64" y="118.0" text-anchor="end">6B</text>
  <text x="64" y="48.0" text-anchor="end">8B</text>
  <text x="88.6" y="342" text-anchor="middle">Oct '24</text>
  <text x="197.8" y="342" text-anchor="middle">Jan '25</text>
  <text x="304.6" y="342" text-anchor="middle">Apr '25</text>
  <text x="412.7" y="342" text-anchor="middle">Jul '25</text>
  <text x="521.9" y="342" text-anchor="middle">Oct '25</text>
  <text x="631.1" y="342" text-anchor="middle">Jan '26</text>
  <text x="737.9" y="342" text-anchor="middle">Apr '26</text>
  <text x="845.9" y="342" text-anchor="middle">Jul '26</text>
  <path class="line" d="M72.0,324.0L73.2,323.9L74.4,323.3L75.6,323.1L76.7,323.1L77.9,322.9L79.1,322.8L80.3,322.7L81.5,322.2L82.7,322.6L83.9,322.5L85.1,322.4L86.2,322.6L87.4,322.5L88.6,307.9L89.8,307.6L91.0,307.2L92.2,306.9L93.4,306.9L94.6,306.9L95.7,307.0L96.9,306.6L98.1,306.7L99.3,306.7L100.5,306.4L101.7,306.1L102.9,306.0L104.0,306.2L105.2,306.1L106.4,305.4L107.6,304.7L108.8,304.4L110.0,304.3L111.2,304.2L112.4,302.8L113.5,302.6L114.7,301.9L115.9,305.2L117.1,306.5L118.3,306.4L119.5,306.3L120.7,305.9L121.9,305.4L123.0,306.7L124.2,306.6L125.4,306.8L126.6,306.8L127.8,306.5L129.0,306.3L130.2,301.8L131.3,303.5L132.5,303.9L133.7,303.8L134.9,303.6L136.1,303.6L137.3,308.5L138.5,310.7L139.7,310.6L140.8,310.7L142.0,310.6L143.2,310.1L144.4,310.4L145.6,310.5L146.8,310.5L148.0,311.1L149.2,311.1L150.3,311.7L151.5,311.0L152.7,311.6L153.9,312.6L155.1,312.6L156.3,312.6L157.5,312.1L158.6,313.3L159.8,308.1L161.0,306.8L162.2,307.8L163.4,308.0L164.6,308.1L165.8,308.2L167.0,308.0L168.1,307.7L169.3,307.6L170.5,307.8L171.7,307.5L172.9,307.0L174.1,306.7L175.3,306.7L176.5,306.0L177.6,306.0L178.8,305.6L180.0,305.5L181.2,305.7L182.4,305.9L183.6,305.0L184.8,304.5L185.9,303.5L187.1,303.3L188.3,300.5L189.5,300.0L190.7,302.4L191.9,302.0L193.1,301.9L194.3,303.3L195.4,300.5L196.6,300.4L197.8,302.9L199.0,296.3L200.2,287.3L201.4,286.5L202.6,287.9L203.8,286.0L204.9,289.7L206.1,288.3L207.3,288.0L208.5,285.9L209.7,285.7L210.9,281.8L212.1,280.7L213.2,277.4L214.4,274.4L215.6,277.6L216.8,279.5L218.0,282.6L219.2,282.7L220.4,282.6L221.6,279.4L222.7,274.7L223.9,266.0L225.1,273.3L226.3,270.4L227.5,270.5L228.7,269.5L229.9,266.4L231.1,264.1L232.2,263.0L233.4,264.6L234.6,264.3L235.8,265.3L237.0,263.6L238.2,244.0L239.4,234.0L240.5,225.2L241.7,215.2L242.9,212.2L244.1,211.8L245.3,211.2L246.5,209.9L247.7,210.4L248.9,209.4L250.0,208.7L251.2,207.9L252.4,207.3L253.6,207.1L254.8,201.0L256.0,204.2L257.2,214.6L258.4,226.4L259.5,225.9L260.7,224.9L261.9,216.0L263.1,220.2L264.3,222.6L265.5,222.3L266.7,219.9L267.8,220.0L269.0,219.9L270.2,217.0L271.4,218.2L272.6,210.7L273.8,209.3L275.0,208.8L276.2,208.6L277.3,208.6L278.5,207.1L279.7,205.0L280.9,203.0L282.1,201.2L283.3,201.9L284.5,201.6L285.6,201.3L286.8,201.3L288.0,200.6L289.2,200.8L290.4,204.7L291.6,209.6L292.8,209.5L294.0,209.7L295.1,206.1L296.3,209.6L297.5,211.0L298.7,217.4L299.9,220.2L301.1,220.2L302.3,220.2L303.5,219.8L304.6,220.0L305.8,219.9L307.0,218.9L308.2,218.2L309.4,217.7L310.6,217.9L311.8,217.5L312.9,217.6L314.1,219.6L315.3,218.9L316.5,237.2L317.7,237.1L318.9,237.2L320.1,237.1L321.3,237.0L322.4,235.9L323.6,235.6L324.8,235.6L326.0,235.5L327.2,236.3L328.4,235.2L329.6,236.4L330.8,236.3L331.9,234.6L333.1,231.3L334.3,231.0L335.5,231.0L336.7,223.9L337.9,223.3L339.1,223.5L340.2,222.9L341.4,215.0L342.6,215.2L343.8,220.7L345.0,225.8L346.2,230.0L347.4,228.6L348.6,217.9L349.7,222.7L350.9,224.3L352.1,224.0L353.3,238.9L354.5,246.7L355.7,247.2L356.9,247.8L358.1,247.8L359.2,242.5L360.4,247.1L361.6,246.8L362.8,240.4L364.0,246.8L365.2,245.7L366.4,261.2L367.5,261.1L368.7,255.2L369.9,250.4L371.1,249.6L372.3,249.7L373.5,249.1L374.7,247.5L375.9,247.3L377.0,245.7L378.2,238.7L379.4,235.7L380.6,238.1L381.8,237.6L383.0,236.8L384.2,233.8L385.4,234.0L386.5,238.0L387.7,240.5L388.9,240.6L390.1,241.4L391.3,244.7L392.5,239.5L393.7,245.3L394.8,241.7L396.0,240.7L397.2,240.1L398.4,233.9L399.6,239.2L400.8,239.3L402.0,240.7L403.2,236.5L404.3,235.6L405.5,245.1L406.7,245.3L407.9,239.4L409.1,244.4L410.3,242.3L411.5,246.2L412.7,241.5L413.8,247.8L415.0,250.0L416.2,246.6L417.4,241.4L418.6,246.3L419.8,246.3L421.0,246.2L422.1,247.2L423.3,242.7L424.5,247.4L425.7,250.5L426.9,251.1L428.1,260.1L429.3,262.6L430.5,261.9L431.6,260.5L432.8,264.9L434.0,265.6L435.2,265.7L436.4,265.5L437.6,264.9L438.8,265.4L440.0,266.4L441.1,266.1L442.3,265.9L443.5,266.3L444.7,266.2L445.9,261.2L447.1,265.4L448.3,260.9L449.4,267.0L450.6,266.9L451.8,266.0L453.0,265.8L454.2,262.7L455.4,262.5L456.6,263.2L457.8,262.7L458.9,262.0L460.1,262.0L461.3,262.2L462.5,263.1L463.7,259.3L464.9,260.8L466.1,262.1L467.3,261.5L468.4,261.7L469.6,262.9L470.8,262.9L472.0,261.9L473.2,263.3L474.4,264.1L475.6,264.4L476.7,264.1L477.9,264.3L479.1,261.6L480.3,261.2L481.5,260.9L482.7,259.6L483.9,259.5L485.1,258.9L486.2,259.7L487.4,259.2L488.6,258.2L489.8,256.8L491.0,257.8L492.2,256.4L493.4,256.5L494.6,256.9L495.7,256.7L496.9,257.0L498.1,256.6L499.3,259.2L500.5,253.5L501.7,254.3L502.9,254.5L504.0,250.3L505.2,255.7L506.4,255.8L507.6,255.8L508.8,256.8L510.0,256.9L511.2,257.0L512.4,254.3L513.5,251.6L514.7,258.0L515.9,250.3L517.1,250.3L518.3,242.3L519.5,252.3L520.7,251.6L521.9,254.4L523.0,245.1L524.2,253.5L525.4,253.6L526.6,246.0L527.8,253.9L529.0,253.0L530.2,253.0L531.3,252.5L532.5,253.5L533.7,253.5L534.9,241.4L536.1,242.3L537.3,239.6L538.5,235.8L539.7,242.4L540.8,240.7L542.0,239.7L543.2,239.4L544.4,241.8L545.6,210.9L546.8,202.9L548.0,211.1L549.2,215.0L550.3,213.6L551.5,213.5L552.7,213.6L553.9,212.3L555.1,212.1L556.3,202.8L557.5,215.2L558.6,211.0L559.8,211.0L561.0,202.9L562.2,200.9L563.4,202.2L564.6,202.7L565.8,196.5L567.0,198.0L568.1,197.9L569.3,203.9L570.5,203.4L571.7,202.4L572.9,202.0L574.1,201.0L575.3,200.5L576.5,201.1L577.6,200.8L578.8,201.5L580.0,204.4L581.2,206.8L582.4,207.4L583.6,200.2L584.8,200.0L585.9,201.9L587.1,198.4L588.3,197.1L589.5,196.8L590.7,195.3L591.9,193.6L593.1,182.8L594.3,187.9L595.4,187.6L596.6,185.6L597.8,187.2L599.0,187.4L600.2,186.9L601.4,187.2L602.6,186.1L603.8,181.6L604.9,181.4L606.1,163.5L607.3,163.6L608.5,161.8L609.7,172.3L610.9,170.9L612.1,169.7L613.2,169.6L614.4,170.2L615.6,158.1L616.8,168.3L618.0,168.1L619.2,167.8L620.4,176.4L621.6,176.7L622.7,176.3L623.9,180.4L625.1,180.7L626.3,180.6L627.5,184.5L628.7,187.2L629.9,191.7L631.1,190.1L632.2,176.8L633.4,175.5L634.6,174.2L635.8,172.0L637.0,171.1L638.2,169.1L639.4,166.8L640.5,173.6L641.7,174.0L642.9,175.4L644.1,174.3L645.3,182.6L646.5,182.3L647.7,183.8L648.9,184.3L650.0,184.3L651.2,184.4L652.4,172.7L653.6,173.4L654.8,181.5L656.0,182.6L657.2,183.6L658.4,184.4L659.5,184.3L660.7,187.9L661.9,186.2L663.1,185.7L664.3,182.9L665.5,183.7L666.7,180.9L667.8,181.1L669.0,183.9L670.2,178.1L671.4,178.1L672.6,176.7L673.8,171.3L675.0,169.1L676.2,169.3L677.3,166.7L678.5,168.9L679.7,164.8L680.9,164.3L682.1,164.6L683.3,163.9L684.5,163.6L685.6,160.1L686.8,159.1L688.0,158.4L689.2,157.0L690.4,156.7L691.6,156.4L692.8,156.6L694.0,156.5L695.1,156.1L696.3,154.8L697.5,154.7L698.7,153.5L699.9,149.3L701.1,149.1L702.3,149.1L703.5,161.6L704.6,161.8L705.8,131.1L707.0,131.8L708.2,124.8L709.4,122.6L710.6,118.8L711.8,118.2L712.9,117.7L714.1,118.5L715.3,116.4L716.5,116.6L717.7,116.8L718.9,116.4L720.1,116.1L721.3,105.4L722.4,110.3L723.6,108.8L724.8,101.1L726.0,104.2L727.2,105.5L728.4,104.9L729.6,107.4L730.8,111.5L731.9,111.8L733.1,111.2L734.3,105.8L735.5,103.3L736.7,98.2L737.9,104.8L739.1,99.0L740.2,98.5L741.4,98.7L742.6,98.4L743.8,115.4L745.0,108.7L746.2,107.9L747.4,108.1L748.6,108.3L749.7,107.9L750.9,105.4L752.1,113.8L753.3,112.2L754.5,112.0L755.7,112.3L756.9,111.0L758.1,116.5L759.2,131.2L760.4,132.8L761.6,130.2L762.8,131.7L764.0,149.1L765.2,149.1L766.4,146.5L767.5,145.3L768.7,144.2L769.9,143.4L771.1,162.2L772.3,139.5L773.5,139.8L774.7,123.9L775.9,124.2L777.0,128.3L778.2,127.9L779.4,130.0L780.6,128.7L781.8,158.1L783.0,127.9L784.2,122.6L785.4,126.2L786.5,127.1L787.7,126.9L788.9,126.2L790.1,122.4L791.3,122.4L792.5,122.5L793.7,116.0L794.8,117.8L796.0,130.6L797.2,135.8L798.4,116.0L799.6,116.1L800.8,116.4L802.0,106.8L803.2,116.7L804.3,119.6L805.5,117.4L806.7,117.9L807.9,118.1L809.1,118.2L810.3,119.1L811.5,120.7L812.7,119.8L813.8,113.0L815.0,114.1L816.2,113.9L817.4,115.4L818.6,117.3L819.8,118.0L821.0,118.7L822.1,120.3L823.3,117.7L824.5,118.7L825.7,118.3L826.9,118.4L828.1,128.0L829.3,128.5L830.5,128.8L831.6,128.0L832.8,127.8L834.0,127.9L835.2,127.9L836.4,128.4L837.6,128.2L838.8,128.3L840.0,129.6L841.1,129.4L842.3,129.7L843.5,130.1L844.7,130.6L845.9,131.3L847.1,138.9L848.3,137.0L849.4,137.6L850.6,137.7L851.8,138.6L853.0,143.3L854.2,148.1L855.4,149.8L856.6,148.7L857.8,148.8L858.9,149.8L860.1,166.5L861.3,169.4L862.5,168.6L863.7,167.7L864.9,168.2L866.1,166.9L867.3,168.2L868.4,168.2L869.6,168.7L870.8,169.9L872.0,157.5"/>
  <text class="footer" x="72" y="372">source: queries/01_tvl_daily.sql (executed verbatim) · susds-indexer · generated 2026-07-23T06:11:14.851Z · watermark block 25,593,477</text>
</svg>
