<svg xmlns="http://www.w3.org/2000/svg" width="920" height="380" viewBox="0 0 920 380">
  <style>
  text { font-family: ui-sans-serif, system-ui, sans-serif; font-size: 12px; fill: #768390; }
  .title { font-size: 15px; font-weight: 600; fill: #768390; }
  .footer { font-size: 10px; fill: #768390; opacity: 0.85; }
  .axis { stroke: #768390; stroke-width: 1; }
  .grid { stroke: #768390; stroke-width: 0.5; opacity: 0.25; }
  .line { stroke: #4493f8; stroke-width: 1.8; fill: none; }
  .pos { fill: #3fb950; }
  .neg { fill: #f85149; }
  @media (prefers-color-scheme: dark) {
    text, .title, .footer { fill: #9198a1; }
  }
</style>
  <text class="title" x="72" y="24">sUSDS TVL — full history</text>
  <text transform="rotate(-90)" x="-184" y="16" text-anchor="middle">USDS</text>
  <line class="grid" x1="72" x2="872" y1="324.0" y2="324.0"/>
  <line class="grid" x1="72" x2="872" y1="254.0" y2="254.0"/>
  <line class="grid" x1="72" x2="872" y1="184.0" y2="184.0"/>
  <line class="grid" x1="72" x2="872" y1="114.0" y2="114.0"/>
  <line class="grid" x1="72" x2="872" y1="44.0" y2="44.0"/>
  <line class="axis" x1="72" x2="872" y1="324.0" y2="324.0"/>
  <text x="64" y="328.0" text-anchor="end">0</text>
  <text x="64" y="258.0" text-anchor="end">2B</text>
  <text x="64" y="188.0" text-anchor="end">4B</text>
  <text x="64" y="118.0" text-anchor="end">6B</text>
  <text x="64" y="48.0" text-anchor="end">8B</text>
  <text x="88.6" y="342" text-anchor="middle">Oct '24</text>
  <text x="198.0" y="342" text-anchor="middle">Jan '25</text>
  <text x="305.0" y="342" text-anchor="middle">Apr '25</text>
  <text x="413.2" y="342" text-anchor="middle">Jul '25</text>
  <text x="522.5" y="342" text-anchor="middle">Oct '25</text>
  <text x="631.9" y="342" text-anchor="middle">Jan '26</text>
  <text x="738.9" y="342" text-anchor="middle">Apr '26</text>
  <text x="847.0" y="342" text-anchor="middle">Jul '26</text>
  <path class="line" d="M72.0,324.0L73.2,323.9L74.4,323.3L75.6,323.1L76.8,323.1L77.9,322.9L79.1,322.8L80.3,322.7L81.5,322.2L82.7,322.6L83.9,322.5L85.1,322.4L86.3,322.6L87.5,322.5L88.6,307.9L89.8,307.6L91.0,307.2L92.2,306.9L93.4,306.9L94.6,306.9L95.8,307.0L97.0,306.6L98.2,306.7L99.3,306.7L100.5,306.4L101.7,306.1L102.9,306.0L104.1,306.2L105.3,306.1L106.5,305.4L107.7,304.7L108.8,304.4L110.0,304.3L111.2,304.2L112.4,302.8L113.6,302.6L114.8,301.9L116.0,305.2L117.2,306.5L118.4,306.4L119.5,306.3L120.7,305.9L121.9,305.4L123.1,306.7L124.3,306.6L125.5,306.8L126.7,306.8L127.9,306.5L129.1,306.3L130.2,301.8L131.4,303.5L132.6,303.9L133.8,303.8L135.0,303.6L136.2,303.6L137.4,308.5L138.6,310.7L139.8,310.6L140.9,310.7L142.1,310.6L143.3,310.1L144.5,310.4L145.7,310.5L146.9,310.5L148.1,311.1L149.3,311.1L150.5,311.7L151.6,311.0L152.8,311.6L154.0,312.6L155.2,312.6L156.4,312.6L157.6,312.1L158.8,313.3L160.0,308.1L161.2,306.8L162.3,307.8L163.5,308.0L164.7,308.1L165.9,308.2L167.1,308.0L168.3,307.7L169.5,307.6L170.7,307.8L171.9,307.5L173.0,307.0L174.2,306.7L175.4,306.7L176.6,306.0L177.8,306.0L179.0,305.6L180.2,305.5L181.4,305.7L182.5,305.9L183.7,305.0L184.9,304.5L186.1,303.5L187.3,303.3L188.5,300.5L189.7,300.0L190.9,302.4L192.1,302.0L193.2,301.9L194.4,303.3L195.6,300.5L196.8,300.4L198.0,302.9L199.2,296.3L200.4,287.3L201.6,286.5L202.8,287.9L203.9,286.0L205.1,289.7L206.3,288.3L207.5,288.0L208.7,285.9L209.9,285.7L211.1,281.8L212.3,280.7L213.5,277.4L214.6,274.4L215.8,277.6L217.0,279.5L218.2,282.6L219.4,282.7L220.6,282.6L221.8,279.4L223.0,274.7L224.2,266.0L225.3,273.3L226.5,270.4L227.7,270.5L228.9,269.5L230.1,266.4L231.3,264.1L232.5,263.0L233.7,264.6L234.9,264.3L236.0,265.3L237.2,263.6L238.4,244.0L239.6,234.0L240.8,225.2L242.0,215.2L243.2,212.2L244.4,211.8L245.6,211.2L246.7,209.9L247.9,210.4L249.1,209.4L250.3,208.7L251.5,207.9L252.7,207.3L253.9,207.1L255.1,201.0L256.2,204.2L257.4,214.6L258.6,226.4L259.8,225.9L261.0,224.9L262.2,216.0L263.4,220.2L264.6,222.6L265.8,222.3L266.9,219.9L268.1,220.0L269.3,219.9L270.5,217.0L271.7,218.2L272.9,210.7L274.1,209.3L275.3,208.8L276.5,208.6L277.6,208.6L278.8,207.1L280.0,205.0L281.2,203.0L282.4,201.2L283.6,201.9L284.8,201.6L286.0,201.3L287.2,201.3L288.3,200.6L289.5,200.8L290.7,204.7L291.9,209.6L293.1,209.5L294.3,209.7L295.5,206.1L296.7,209.6L297.9,211.0L299.0,217.4L300.2,220.2L301.4,220.2L302.6,220.2L303.8,219.8L305.0,220.0L306.2,219.9L307.4,218.9L308.6,218.2L309.7,217.7L310.9,217.9L312.1,217.5L313.3,217.6L314.5,219.6L315.7,218.9L316.9,237.2L318.1,237.1L319.3,237.2L320.4,237.1L321.6,237.0L322.8,235.9L324.0,235.6L325.2,235.6L326.4,235.5L327.6,236.3L328.8,235.2L329.9,236.4L331.1,236.3L332.3,234.6L333.5,231.3L334.7,231.0L335.9,231.0L337.1,223.9L338.3,223.3L339.5,223.5L340.6,222.9L341.8,215.0L343.0,215.2L344.2,220.7L345.4,225.8L346.6,230.0L347.8,228.6L349.0,217.9L350.2,222.7L351.3,224.3L352.5,224.0L353.7,238.9L354.9,246.7L356.1,247.2L357.3,247.8L358.5,247.8L359.7,242.5L360.9,247.1L362.0,246.8L363.2,240.4L364.4,246.8L365.6,245.7L366.8,261.2L368.0,261.1L369.2,255.2L370.4,250.4L371.6,249.6L372.7,249.7L373.9,249.1L375.1,247.5L376.3,247.3L377.5,245.7L378.7,238.7L379.9,235.7L381.1,238.1L382.3,237.6L383.4,236.8L384.6,233.8L385.8,234.0L387.0,238.0L388.2,240.5L389.4,240.6L390.6,241.4L391.8,244.7L393.0,239.5L394.1,245.3L395.3,241.7L396.5,240.7L397.7,240.1L398.9,233.9L400.1,239.2L401.3,239.3L402.5,240.7L403.6,236.5L404.8,235.6L406.0,245.1L407.2,245.3L408.4,239.4L409.6,244.4L410.8,242.3L412.0,246.2L413.2,241.5L414.3,247.8L415.5,250.0L416.7,246.6L417.9,241.4L419.1,246.3L420.3,246.3L421.5,246.2L422.7,247.2L423.9,242.7L425.0,247.4L426.2,250.5L427.4,251.1L428.6,260.1L429.8,262.6L431.0,261.9L432.2,260.5L433.4,264.9L434.6,265.6L435.7,265.7L436.9,265.5L438.1,264.9L439.3,265.4L440.5,266.4L441.7,266.1L442.9,265.9L444.1,266.3L445.3,266.2L446.4,261.2L447.6,265.4L448.8,260.9L450.0,267.0L451.2,266.9L452.4,266.0L453.6,265.8L454.8,262.7L456.0,262.5L457.1,263.2L458.3,262.7L459.5,262.0L460.7,262.0L461.9,262.2L463.1,263.1L464.3,259.3L465.5,260.8L466.7,262.1L467.8,261.5L469.0,261.7L470.2,262.9L471.4,262.9L472.6,261.9L473.8,263.3L475.0,264.1L476.2,264.4L477.3,264.1L478.5,264.3L479.7,261.6L480.9,261.2L482.1,260.9L483.3,259.6L484.5,259.5L485.7,258.9L486.9,259.7L488.0,259.2L489.2,258.2L490.4,256.8L491.6,257.8L492.8,256.4L494.0,256.5L495.2,256.9L496.4,256.7L497.6,257.0L498.7,256.6L499.9,259.2L501.1,253.5L502.3,254.3L503.5,254.5L504.7,250.3L505.9,255.7L507.1,255.8L508.3,255.8L509.4,256.8L510.6,256.9L511.8,257.0L513.0,254.3L514.2,251.6L515.4,258.0L516.6,250.3L517.8,250.3L519.0,242.3L520.1,252.3L521.3,251.6L522.5,254.4L523.7,245.1L524.9,253.5L526.1,253.6L527.3,246.0L528.5,253.9L529.7,253.0L530.8,253.0L532.0,252.5L533.2,253.5L534.4,253.5L535.6,241.4L536.8,242.3L538.0,239.6L539.2,235.8L540.4,242.4L541.5,240.7L542.7,239.7L543.9,239.4L545.1,241.8L546.3,210.9L547.5,202.9L548.7,211.1L549.9,215.0L551.0,213.6L552.2,213.5L553.4,213.6L554.6,212.3L555.8,212.1L557.0,202.8L558.2,215.2L559.4,211.0L560.6,211.0L561.7,202.9L562.9,200.9L564.1,202.2L565.3,202.7L566.5,196.5L567.7,198.0L568.9,197.9L570.1,203.9L571.3,203.4L572.4,202.4L573.6,202.0L574.8,201.0L576.0,200.5L577.2,201.1L578.4,200.8L579.6,201.5L580.8,204.4L582.0,206.8L583.1,207.4L584.3,200.2L585.5,200.0L586.7,201.9L587.9,198.4L589.1,197.1L590.3,196.8L591.5,195.3L592.7,193.6L593.8,182.8L595.0,187.9L596.2,187.6L597.4,185.6L598.6,187.2L599.8,187.4L601.0,186.9L602.2,187.2L603.4,186.1L604.5,181.6L605.7,181.4L606.9,163.5L608.1,163.6L609.3,161.8L610.5,172.3L611.7,170.9L612.9,169.7L614.1,169.6L615.2,170.2L616.4,158.1L617.6,168.3L618.8,168.1L620.0,167.8L621.2,176.4L622.4,176.7L623.6,176.3L624.7,180.4L625.9,180.7L627.1,180.6L628.3,184.5L629.5,187.2L630.7,191.7L631.9,190.1L633.1,176.8L634.3,175.5L635.4,174.2L636.6,172.0L637.8,171.1L639.0,169.1L640.2,166.8L641.4,173.6L642.6,174.0L643.8,175.4L645.0,174.3L646.1,182.6L647.3,182.3L648.5,183.8L649.7,184.3L650.9,184.3L652.1,184.4L653.3,172.7L654.5,173.4L655.7,181.5L656.8,182.6L658.0,183.6L659.2,184.4L660.4,184.3L661.6,187.9L662.8,186.2L664.0,185.7L665.2,182.9L666.4,183.7L667.5,180.9L668.7,181.1L669.9,183.9L671.1,178.1L672.3,178.1L673.5,176.7L674.7,171.3L675.9,169.1L677.1,169.3L678.2,166.7L679.4,168.9L680.6,164.8L681.8,164.3L683.0,164.6L684.2,163.9L685.4,163.6L686.6,160.1L687.8,159.1L688.9,158.4L690.1,157.0L691.3,156.7L692.5,156.4L693.7,156.6L694.9,156.5L696.1,156.1L697.3,154.8L698.4,154.7L699.6,153.5L700.8,149.3L702.0,149.1L703.2,149.1L704.4,161.6L705.6,161.8L706.8,131.1L708.0,131.8L709.1,124.8L710.3,122.6L711.5,118.8L712.7,118.2L713.9,117.7L715.1,118.5L716.3,116.4L717.5,116.6L718.7,116.8L719.8,116.4L721.0,116.1L722.2,105.4L723.4,110.3L724.6,108.8L725.8,101.1L727.0,104.2L728.2,105.5L729.4,104.9L730.5,107.4L731.7,111.5L732.9,111.8L734.1,111.2L735.3,105.8L736.5,103.3L737.7,98.2L738.9,104.8L740.1,99.0L741.2,98.5L742.4,98.7L743.6,98.4L744.8,115.4L746.0,108.7L747.2,107.9L748.4,108.1L749.6,108.3L750.8,107.9L751.9,105.4L753.1,113.8L754.3,112.2L755.5,112.0L756.7,112.3L757.9,111.0L759.1,116.5L760.3,131.2L761.5,132.8L762.6,130.2L763.8,131.7L765.0,149.1L766.2,149.1L767.4,146.5L768.6,145.3L769.8,144.2L771.0,143.4L772.1,162.2L773.3,139.5L774.5,139.8L775.7,123.9L776.9,124.2L778.1,128.3L779.3,127.9L780.5,130.0L781.7,128.7L782.8,158.1L784.0,127.9L785.2,122.6L786.4,126.2L787.6,127.1L788.8,126.9L790.0,126.2L791.2,122.4L792.4,122.4L793.5,122.5L794.7,116.0L795.9,117.8L797.1,130.6L798.3,135.8L799.5,116.0L800.7,116.1L801.9,116.4L803.1,106.8L804.2,116.7L805.4,119.6L806.6,117.4L807.8,117.9L809.0,118.1L810.2,118.2L811.4,119.1L812.6,120.7L813.8,119.8L814.9,113.0L816.1,114.1L817.3,113.9L818.5,115.4L819.7,117.3L820.9,118.0L822.1,118.7L823.3,120.3L824.5,117.7L825.6,118.7L826.8,118.3L828.0,118.4L829.2,128.0L830.4,128.5L831.6,128.8L832.8,128.0L834.0,127.8L835.2,127.9L836.3,127.9L837.5,128.4L838.7,128.2L839.9,128.3L841.1,129.6L842.3,129.4L843.5,129.7L844.7,130.1L845.8,130.6L847.0,131.3L848.2,138.9L849.4,137.0L850.6,137.6L851.8,137.7L853.0,138.6L854.2,143.3L855.4,148.1L856.5,149.8L857.7,148.7L858.9,148.8L860.1,149.8L861.3,166.5L862.5,169.4L863.7,168.6L864.9,167.7L866.1,168.2L867.2,166.9L868.4,168.2L869.6,168.2L870.8,168.7L872.0,158.2"/>
  <text class="footer" x="72" y="372">source: queries/01_tvl_daily.sql (executed verbatim) · susds-indexer · generated 2026-07-22T01:34:09.178Z · watermark block 25,584,691</text>
</svg>
