<svg xmlns="http://www.w3.org/2000/svg" width="920" height="380" viewBox="0 0 920 380">
  <style>
  text { font-family: ui-sans-serif, system-ui, sans-serif; font-size: 12px; fill: #768390; }
  .title { font-size: 15px; font-weight: 600; fill: #768390; }
  .footer { font-size: 10px; fill: #768390; opacity: 0.85; }
  .axis { stroke: #768390; stroke-width: 1; }
  .grid { stroke: #768390; stroke-width: 0.5; opacity: 0.25; }
  .line { stroke: #4493f8; stroke-width: 1.8; fill: none; }
  .pos { fill: #3fb950; }
  .neg { fill: #f85149; }
  @media (prefers-color-scheme: dark) {
    text, .title, .footer { fill: #9198a1; }
  }
</style>
  <text class="title" x="72" y="24">sUSDS TVL — full history</text>
  <text transform="rotate(-90)" x="-184" y="16" text-anchor="middle">USDS</text>
  <line class="grid" x1="72" x2="872" y1="324.0" y2="324.0"/>
  <line class="grid" x1="72" x2="872" y1="254.0" y2="254.0"/>
  <line class="grid" x1="72" x2="872" y1="184.0" y2="184.0"/>
  <line class="grid" x1="72" x2="872" y1="114.0" y2="114.0"/>
  <line class="grid" x1="72" x2="872" y1="44.0" y2="44.0"/>
  <line class="axis" x1="72" x2="872" y1="324.0" y2="324.0"/>
  <text x="64" y="328.0" text-anchor="end">0</text>
  <text x="64" y="258.0" text-anchor="end">2B</text>
  <text x="64" y="188.0" text-anchor="end">4B</text>
  <text x="64" y="118.0" text-anchor="end">6B</text>
  <text x="64" y="48.0" text-anchor="end">8B</text>
  <text x="87.4" y="342" text-anchor="middle">Oct '24</text>
  <text x="188.8" y="342" text-anchor="middle">Jan '25</text>
  <text x="288.0" y="342" text-anchor="middle">Apr '25</text>
  <text x="388.3" y="342" text-anchor="middle">Jul '25</text>
  <text x="489.6" y="342" text-anchor="middle">Oct '25</text>
  <text x="591.0" y="342" text-anchor="middle">Jan '26</text>
  <text x="690.2" y="342" text-anchor="middle">Apr '26</text>
  <text x="790.5" y="342" text-anchor="middle">Jul '26</text>
  <path class="line" d="M72.0,324.0L73.1,323.9L74.2,323.3L75.3,323.1L76.4,323.1L77.5,322.9L78.6,322.8L79.7,322.7L80.8,322.2L81.9,322.6L83.0,322.5L84.1,322.4L85.2,322.6L86.3,322.5L87.4,307.9L88.5,307.6L89.6,307.2L90.7,306.9L91.8,306.9L92.9,306.9L94.0,307.0L95.1,306.6L96.2,306.7L97.3,306.7L98.4,306.4L99.5,306.1L100.7,306.0L101.8,306.2L102.9,306.1L104.0,305.4L105.1,304.7L106.2,304.4L107.3,304.3L108.4,304.2L109.5,302.8L110.6,302.6L111.7,301.9L112.8,305.2L113.9,306.5L115.0,306.4L116.1,306.3L117.2,305.9L118.3,305.4L119.4,306.7L120.5,306.6L121.6,306.8L122.7,306.8L123.8,306.5L124.9,306.3L126.0,301.8L127.1,303.5L128.2,303.9L129.3,303.8L130.4,303.6L131.5,303.6L132.6,308.5L133.7,310.7L134.8,310.6L135.9,310.7L137.0,310.6L138.1,310.1L139.2,310.4L140.3,310.5L141.4,310.5L142.5,311.1L143.6,311.1L144.7,311.7L145.8,311.0L146.9,311.6L148.0,312.6L149.1,312.6L150.2,312.6L151.3,312.1L152.4,313.3L153.5,308.1L154.6,306.8L155.7,307.8L156.8,308.0L158.0,308.1L159.1,308.2L160.2,308.0L161.3,307.7L162.4,307.6L163.5,307.8L164.6,307.5L165.7,307.0L166.8,306.7L167.9,306.7L169.0,306.0L170.1,306.0L171.2,305.6L172.3,305.5L173.4,305.7L174.5,305.9L175.6,305.0L176.7,304.5L177.8,303.5L178.9,303.3L180.0,300.5L181.1,300.0L182.2,302.4L183.3,302.0L184.4,301.9L185.5,303.3L186.6,300.5L187.7,300.4L188.8,302.9L189.9,296.3L191.0,287.3L192.1,286.5L193.2,287.9L194.3,286.0L195.4,289.7L196.5,288.3L197.6,288.0L198.7,285.9L199.8,285.7L200.9,281.8L202.0,280.7L203.1,277.4L204.2,274.4L205.3,277.6L206.4,279.5L207.5,282.6L208.6,282.7L209.7,282.6L210.8,279.4L211.9,274.7L213.0,266.0L214.1,273.3L215.3,270.4L216.4,270.5L217.5,269.5L218.6,266.4L219.7,264.1L220.8,263.0L221.9,264.6L223.0,264.3L224.1,265.3L225.2,263.6L226.3,244.0L227.4,234.0L228.5,225.2L229.6,215.2L230.7,212.2L231.8,211.8L232.9,211.2L234.0,209.9L235.1,210.4L236.2,209.4L237.3,208.7L238.4,207.9L239.5,207.3L240.6,207.1L241.7,201.0L242.8,204.2L243.9,214.6L245.0,226.4L246.1,225.9L247.2,224.9L248.3,216.0L249.4,220.2L250.5,222.6L251.6,222.3L252.7,219.9L253.8,220.0L254.9,219.9L256.0,217.0L257.1,218.2L258.2,210.7L259.3,209.3L260.4,208.8L261.5,208.6L262.6,208.6L263.7,207.1L264.8,205.0L265.9,203.0L267.0,201.2L268.1,201.9L269.2,201.6L270.3,201.3L271.4,201.3L272.6,200.6L273.7,200.8L274.8,204.7L275.9,209.6L277.0,209.5L278.1,209.7L279.2,206.1L280.3,209.6L281.4,211.0L282.5,217.4L283.6,220.2L284.7,220.2L285.8,220.2L286.9,219.8L288.0,220.0L289.1,219.9L290.2,218.9L291.3,218.2L292.4,217.7L293.5,217.9L294.6,217.5L295.7,217.6L296.8,219.6L297.9,218.9L299.0,237.2L300.1,237.1L301.2,237.2L302.3,237.1L303.4,237.0L304.5,235.9L305.6,235.6L306.7,235.6L307.8,235.5L308.9,236.3L310.0,235.2L311.1,236.4L312.2,236.3L313.3,234.6L314.4,231.3L315.5,231.0L316.6,231.0L317.7,223.9L318.8,223.3L319.9,223.5L321.0,222.9L322.1,215.0L323.2,215.2L324.3,220.7L325.4,225.8L326.5,230.0L327.6,228.6L328.7,217.9L329.9,222.7L331.0,224.3L332.1,224.0L333.2,238.9L334.3,246.7L335.4,247.2L336.5,247.8L337.6,247.8L338.7,242.5L339.8,247.1L340.9,246.8L342.0,240.4L343.1,246.8L344.2,245.7L345.3,261.2L346.4,261.1L347.5,255.2L348.6,250.4L349.7,249.6L350.8,249.7L351.9,249.1L353.0,247.5L354.1,247.3L355.2,245.7L356.3,238.7L357.4,235.7L358.5,238.1L359.6,237.6L360.7,236.8L361.8,233.8L362.9,234.0L364.0,238.0L365.1,240.5L366.2,240.6L367.3,241.4L368.4,244.7L369.5,239.5L370.6,245.3L371.7,241.7L372.8,240.7L373.9,240.1L375.0,233.9L376.1,239.2L377.2,239.3L378.3,240.7L379.4,236.5L380.5,235.6L381.6,245.1L382.7,245.3L383.8,239.4L384.9,244.4L386.0,242.3L387.2,246.2L388.3,241.5L389.4,247.8L390.5,250.0L391.6,246.6L392.7,241.4L393.8,246.3L394.9,246.3L396.0,246.2L397.1,247.2L398.2,242.7L399.3,247.4L400.4,250.5L401.5,251.1L402.6,260.1L403.7,262.6L404.8,261.9L405.9,260.5L407.0,264.9L408.1,265.6L409.2,265.7L410.3,265.5L411.4,264.9L412.5,265.4L413.6,266.4L414.7,266.1L415.8,265.9L416.9,266.3L418.0,266.2L419.1,261.2L420.2,265.4L421.3,260.9L422.4,267.0L423.5,266.9L424.6,266.0L425.7,265.8L426.8,262.7L427.9,262.5L429.0,263.2L430.1,262.7L431.2,262.0L432.3,262.0L433.4,262.2L434.5,263.1L435.6,259.3L436.7,260.8L437.8,262.1L438.9,261.5L440.0,261.7L441.1,262.9L442.2,262.9L443.3,261.9L444.5,263.3L445.6,264.1L446.7,264.4L447.8,264.1L448.9,264.3L450.0,261.6L451.1,261.2L452.2,260.9L453.3,259.6L454.4,259.5L455.5,258.9L456.6,259.7L457.7,259.2L458.8,258.2L459.9,256.8L461.0,257.8L462.1,256.4L463.2,256.5L464.3,256.9L465.4,256.7L466.5,257.0L467.6,256.6L468.7,259.2L469.8,253.5L470.9,254.3L472.0,254.5L473.1,250.3L474.2,255.7L475.3,255.8L476.4,255.8L477.5,256.8L478.6,256.9L479.7,257.0L480.8,254.3L481.9,251.6L483.0,258.0L484.1,250.3L485.2,250.3L486.3,242.3L487.4,252.3L488.5,251.6L489.6,254.4L490.7,245.1L491.8,253.5L492.9,253.6L494.0,246.0L495.1,253.9L496.2,253.0L497.3,253.0L498.4,252.5L499.5,253.5L500.7,253.5L501.8,241.4L502.9,242.3L504.0,239.6L505.1,235.8L506.2,242.4L507.3,240.7L508.4,239.7L509.5,239.4L510.6,241.8L511.7,210.9L512.8,202.9L513.9,211.1L515.0,215.0L516.1,213.6L517.2,213.5L518.3,213.6L519.4,212.3L520.5,212.1L521.6,202.8L522.7,215.2L523.8,211.0L524.9,211.0L526.0,202.9L527.1,200.9L528.2,202.2L529.3,202.7L530.4,196.5L531.5,198.0L532.6,197.9L533.7,203.9L534.8,203.4L535.9,202.4L537.0,202.0L538.1,201.0L539.2,200.5L540.3,201.1L541.4,200.8L542.5,201.5L543.6,204.4L544.7,206.8L545.8,207.4L546.9,200.2L548.0,200.0L549.1,201.9L550.2,198.4L551.3,197.1L552.4,196.8L553.5,195.3L554.6,193.6L555.7,182.8L556.8,187.9L558.0,187.6L559.1,185.6L560.2,187.2L561.3,187.4L562.4,186.9L563.5,187.2L564.6,186.1L565.7,181.6L566.8,181.4L567.9,163.5L569.0,163.6L570.1,161.8L571.2,172.3L572.3,170.9L573.4,169.7L574.5,169.6L575.6,170.2L576.7,158.1L577.8,168.3L578.9,168.1L580.0,167.8L581.1,176.4L582.2,176.7L583.3,176.3L584.4,180.4L585.5,180.7L586.6,180.6L587.7,184.5L588.8,187.2L589.9,191.7L591.0,190.1L592.1,176.8L593.2,175.5L594.3,174.2L595.4,172.0L596.5,171.1L597.6,169.1L598.7,166.8L599.8,173.6L600.9,174.0L602.0,175.4L603.1,174.3L604.2,182.6L605.3,182.3L606.4,183.8L607.5,184.3L608.6,184.3L609.7,184.4L610.8,172.7L611.9,173.4L613.0,181.5L614.1,182.6L615.3,183.6L616.4,184.4L617.5,184.3L618.6,187.9L619.7,186.2L620.8,185.7L621.9,182.9L623.0,183.7L624.1,180.9L625.2,181.1L626.3,183.9L627.4,178.1L628.5,178.1L629.6,176.7L630.7,171.3L631.8,169.1L632.9,169.3L634.0,166.7L635.1,168.9L636.2,164.8L637.3,164.3L638.4,164.6L639.5,163.9L640.6,163.6L641.7,160.1L642.8,159.1L643.9,158.4L645.0,157.0L646.1,156.7L647.2,156.4L648.3,156.6L649.4,156.5L650.5,156.1L651.6,154.8L652.7,154.7L653.8,153.5L654.9,149.3L656.0,149.1L657.1,149.1L658.2,161.6L659.3,161.8L660.4,131.1L661.5,131.8L662.6,124.8L663.7,122.6L664.8,118.8L665.9,118.2L667.0,117.7L668.1,118.5L669.2,116.4L670.3,116.6L671.4,116.8L672.6,116.4L673.7,116.1L674.8,105.4L675.9,110.3L677.0,108.8L678.1,101.1L679.2,104.2L680.3,105.5L681.4,104.9L682.5,107.4L683.6,111.5L684.7,111.8L685.8,111.2L686.9,105.8L688.0,103.3L689.1,98.2L690.2,104.8L691.3,99.0L692.4,98.5L693.5,98.7L694.6,98.4L695.7,115.4L696.8,108.7L697.9,107.9L699.0,108.1L700.1,108.3L701.2,107.9L702.3,105.4L703.4,113.8L704.5,112.2L705.6,112.0L706.7,112.3L707.8,111.0L708.9,116.5L710.0,131.2L711.1,132.8L712.2,130.2L713.3,131.7L714.4,149.1L715.5,149.1L716.6,146.5L717.7,145.3L718.8,144.2L719.9,143.4L721.0,162.2L722.1,139.5L723.2,139.8L724.3,123.9L725.4,124.2L726.5,128.3L727.6,127.9L728.7,130.0L729.9,128.7L731.0,158.1L732.1,127.9L733.2,122.6L734.3,126.2L735.4,127.1L736.5,126.9L737.6,126.2L738.7,122.4L739.8,122.4L740.9,122.5L742.0,116.0L743.1,117.8L744.2,130.6L745.3,135.8L746.4,116.0L747.5,116.1L748.6,116.4L749.7,106.8L750.8,116.7L751.9,119.6L753.0,117.4L754.1,117.9L755.2,118.1L756.3,118.2L757.4,119.1L758.5,120.7L759.6,119.8L760.7,113.0L761.8,114.1L762.9,113.9L764.0,115.4L765.1,117.3L766.2,118.0L767.3,118.7L768.4,120.3L769.5,117.7L770.6,118.7L771.7,118.3L772.8,118.4L773.9,128.0L775.0,128.5L776.1,128.8L777.2,128.0L778.3,127.8L779.4,127.9L780.5,127.9L781.6,128.4L782.7,128.2L783.8,128.3L784.9,129.6L786.0,129.4L787.2,129.7L788.3,130.1L789.4,130.6L790.5,131.3L791.6,138.9L792.7,137.0L793.8,137.6L794.9,137.7L796.0,138.6L797.1,143.3L798.2,148.1L799.3,149.8L800.4,148.7L801.5,148.8L802.6,149.8L803.7,166.5L804.8,169.4L805.9,168.6L807.0,167.7L808.1,168.2L809.2,166.9L810.3,168.2L811.4,168.2L812.5,168.7L813.6,169.9L814.7,170.0L815.8,170.2L816.9,170.4L818.0,170.4L819.1,173.2L820.2,173.1L821.3,172.7L822.4,173.0L823.5,172.6L824.6,172.6L825.7,172.2L826.8,172.2L827.9,168.1L829.0,168.6L830.1,168.2L831.2,168.0L832.3,167.9L833.4,167.8L834.5,169.0L835.6,169.4L836.7,169.0L837.8,168.9L838.9,169.2L840.0,169.1L841.1,168.7L842.2,168.9L843.3,168.9L844.5,170.5L845.6,169.7L846.7,171.2L847.8,170.9L848.9,171.1L850.0,171.2L851.1,171.7L852.2,171.9L853.3,169.8L854.4,170.1L855.5,169.6L856.6,169.8L857.7,169.7L858.8,169.5L859.9,169.5L861.0,169.9L862.1,169.6L863.2,169.7L864.3,169.2L865.4,168.8L866.5,169.1L867.6,168.8L868.7,171.7L869.8,171.4L870.9,171.3L872.0,161.4"/>
  <text class="footer" x="72" y="372">source: queries/01_tvl_daily.sql (executed verbatim) · susds-indexer · generated 2026-09-13T08:20:33.151Z · watermark block 25,967,192</text>
</svg>
