<svg xmlns="http://www.w3.org/2000/svg" width="920" height="380" viewBox="0 0 920 380">
  <style>
  text { font-family: ui-sans-serif, system-ui, sans-serif; font-size: 12px; fill: #768390; }
  .title { font-size: 15px; font-weight: 600; fill: #768390; }
  .footer { font-size: 10px; fill: #768390; opacity: 0.85; }
  .axis { stroke: #768390; stroke-width: 1; }
  .grid { stroke: #768390; stroke-width: 0.5; opacity: 0.25; }
  .line { stroke: #4493f8; stroke-width: 1.8; fill: none; }
  .pos { fill: #3fb950; }
  .neg { fill: #f85149; }
  @media (prefers-color-scheme: dark) {
    text, .title, .footer { fill: #9198a1; }
  }
</style>
  <text class="title" x="72" y="24">sUSDS TVL — full history</text>
  <text transform="rotate(-90)" x="-184" y="16" text-anchor="middle">USDS</text>
  <line class="grid" x1="72" x2="872" y1="324.0" y2="324.0"/>
  <line class="grid" x1="72" x2="872" y1="254.0" y2="254.0"/>
  <line class="grid" x1="72" x2="872" y1="184.0" y2="184.0"/>
  <line class="grid" x1="72" x2="872" y1="114.0" y2="114.0"/>
  <line class="grid" x1="72" x2="872" y1="44.0" y2="44.0"/>
  <line class="axis" x1="72" x2="872" y1="324.0" y2="324.0"/>
  <text x="64" y="328.0" text-anchor="end">0</text>
  <text x="64" y="258.0" text-anchor="end">2B</text>
  <text x="64" y="188.0" text-anchor="end">4B</text>
  <text x="64" y="118.0" text-anchor="end">6B</text>
  <text x="64" y="48.0" text-anchor="end">8B</text>
  <text x="88.4" y="342" text-anchor="middle">Oct '24</text>
  <text x="197.9" y="342" text-anchor="middle">Jan '25</text>
  <text x="305.0" y="342" text-anchor="middle">Apr '25</text>
  <text x="413.4" y="342" text-anchor="middle">Jul '25</text>
  <text x="522.9" y="342" text-anchor="middle">Oct '25</text>
  <text x="632.4" y="342" text-anchor="middle">Jan '26</text>
  <text x="739.6" y="342" text-anchor="middle">Apr '26</text>
  <text x="847.9" y="342" text-anchor="middle">Jul '26</text>
  <path class="line" d="M72.0,324.0L73.2,323.7L74.4,323.3L75.6,323.1L76.8,323.1L78.0,322.9L79.1,322.8L80.3,322.7L81.5,322.6L82.7,322.6L83.9,322.5L85.1,322.6L86.3,322.6L87.5,322.4L88.7,307.9L89.9,307.6L91.0,307.2L92.2,306.9L93.4,306.9L94.6,306.9L95.8,307.0L97.0,306.6L98.2,306.8L99.4,306.4L100.6,306.2L101.8,306.1L103.0,305.9L104.1,306.2L105.3,305.7L106.5,305.4L107.7,304.7L108.9,304.4L110.1,304.3L111.3,304.2L112.5,302.8L113.7,302.3L114.9,301.8L116.0,305.1L117.2,306.5L118.4,306.4L119.6,306.3L120.8,305.9L122.0,305.4L123.2,306.7L124.4,306.6L125.6,306.8L126.8,306.8L128.0,306.5L129.1,306.2L130.3,301.8L131.5,304.5L132.7,303.9L133.9,303.6L135.1,303.6L136.3,304.2L137.5,308.6L138.7,310.7L139.9,310.5L141.0,310.7L142.2,310.6L143.4,310.1L144.6,310.4L145.8,310.5L147.0,310.4L148.2,311.1L149.4,311.1L150.6,311.7L151.8,311.0L153.0,311.6L154.1,312.6L155.3,312.6L156.5,312.6L157.7,312.1L158.9,313.3L160.1,308.1L161.3,306.8L162.5,307.8L163.7,308.0L164.9,308.1L166.0,308.2L167.2,307.8L168.4,307.7L169.6,307.6L170.8,307.7L172.0,307.4L173.2,307.3L174.4,306.7L175.6,306.7L176.8,306.0L178.0,306.0L179.1,305.6L180.3,305.5L181.5,305.7L182.7,305.9L183.9,305.0L185.1,304.5L186.3,303.5L187.5,303.5L188.7,299.5L189.9,302.0L191.0,302.4L192.2,301.7L193.4,303.6L194.6,303.3L195.8,300.5L197.0,300.4L198.2,302.8L199.4,296.4L200.6,287.3L201.8,286.5L203.0,287.8L204.1,286.0L205.3,289.5L206.5,288.2L207.7,287.8L208.9,285.9L210.1,282.6L211.3,281.7L212.5,280.6L213.7,276.2L214.9,275.1L216.0,279.8L217.2,279.1L218.4,283.7L219.6,281.9L220.8,282.8L222.0,275.4L223.2,274.3L224.4,265.7L225.6,272.1L226.8,270.2L228.0,270.2L229.1,266.7L230.3,266.3L231.5,262.8L232.7,264.2L233.9,264.9L235.1,265.7L236.3,267.0L237.5,263.6L238.7,243.2L239.9,234.1L241.0,224.6L242.2,213.8L243.4,211.4L244.6,212.1L245.8,211.0L247.0,209.9L248.2,211.5L249.4,208.7L250.6,208.8L251.8,207.9L253.0,207.5L254.1,207.3L255.3,201.1L256.5,204.1L257.7,215.3L258.9,226.3L260.1,226.2L261.3,225.0L262.5,215.7L263.7,220.1L264.9,222.7L266.0,220.4L267.2,219.9L268.4,220.0L269.6,219.6L270.8,216.8L272.0,218.1L273.2,210.6L274.4,209.4L275.6,208.8L276.8,208.5L278.0,208.6L279.1,206.1L280.3,204.3L281.5,203.1L282.7,201.2L283.9,201.9L285.1,201.6L286.3,201.6L287.5,199.5L288.7,198.9L289.9,199.1L291.0,206.1L292.2,207.9L293.4,207.7L294.6,204.7L295.8,206.8L297.0,209.6L298.2,211.7L299.4,218.1L300.6,220.3L301.8,220.2L303.0,220.0L304.1,219.8L305.3,220.0L306.5,219.7L307.7,217.9L308.9,218.1L310.1,217.4L311.3,217.9L312.5,217.8L313.7,217.3L314.9,219.9L316.0,219.2L317.2,237.2L318.4,237.2L319.6,237.2L320.8,236.5L322.0,236.8L323.2,235.9L324.4,236.5L325.6,235.6L326.8,235.5L328.0,236.4L329.1,235.3L330.3,236.4L331.5,235.2L332.7,234.6L333.9,231.1L335.1,231.0L336.3,231.0L337.5,220.0L338.7,219.6L339.9,219.9L341.0,218.2L342.2,215.2L343.4,215.2L344.6,215.4L345.8,225.1L347.0,224.6L348.2,213.4L349.4,213.6L350.6,217.6L351.8,224.4L353.0,225.2L354.1,233.6L355.3,241.5L356.5,242.3L357.7,242.6L358.9,242.3L360.1,242.5L361.3,241.7L362.5,241.6L363.7,240.5L364.9,242.6L366.0,248.5L367.2,256.0L368.4,255.8L369.6,246.1L370.8,245.2L372.0,244.4L373.2,244.2L374.4,242.4L375.6,242.1L376.8,242.0L378.0,240.5L379.1,233.6L380.3,235.4L381.5,232.9L382.7,235.8L383.9,234.0L385.1,233.7L386.3,234.0L387.5,234.9L388.7,235.4L389.9,235.5L391.0,236.4L392.2,239.4L393.4,240.3L394.6,240.2L395.8,236.4L397.0,235.4L398.2,234.9L399.4,234.0L400.6,234.1L401.8,234.2L403.0,235.6L404.1,230.4L405.3,230.2L406.5,240.0L407.7,240.1L408.9,239.1L410.1,237.5L411.3,242.5L412.5,241.6L413.7,241.4L414.9,247.0L416.0,244.9L417.2,241.5L418.4,241.4L419.6,241.2L420.8,241.2L422.0,242.1L423.2,242.6L424.4,240.0L425.6,242.5L426.8,245.3L428.0,246.4L429.1,254.8L430.3,257.4L431.5,256.7L432.7,260.4L433.9,260.9L435.1,261.5L436.3,261.6L437.5,260.9L438.7,260.2L439.9,261.0L441.0,263.2L442.2,266.0L443.4,265.9L444.6,266.3L445.8,266.2L447.0,261.2L448.2,260.3L449.4,260.8L450.6,261.7L451.8,261.5L453.0,260.4L454.1,260.4L455.3,257.4L456.5,257.8L457.7,258.5L458.9,257.2L460.1,256.8L461.3,257.0L462.5,257.4L463.7,257.6L464.9,254.7L466.0,255.3L467.2,256.4L468.4,256.3L469.6,262.5L470.8,257.6L472.0,257.2L473.2,258.6L474.4,258.9L475.6,260.1L476.8,259.2L478.0,259.2L479.1,258.9L480.3,256.6L481.5,255.6L482.7,255.7L483.9,254.4L485.1,254.2L486.3,253.6L487.5,254.2L488.7,254.0L489.9,252.8L491.0,251.3L492.2,252.8L493.4,251.2L494.6,251.5L495.8,251.7L497.0,251.6L498.2,251.6L499.4,251.0L500.6,251.2L501.8,250.6L503.0,249.3L504.1,249.1L505.3,250.3L506.5,250.4L507.7,247.1L508.9,247.9L510.1,248.3L511.3,248.1L512.5,248.3L513.7,245.8L514.9,243.2L516.0,241.0L517.2,241.6L518.4,241.2L519.6,247.4L520.8,252.2L522.0,244.8L523.2,244.9L524.4,244.9L525.6,244.6L526.8,245.3L528.0,245.9L529.1,245.1L530.3,244.2L531.5,244.2L532.7,243.7L533.9,248.2L535.1,239.3L536.3,231.9L537.5,231.9L538.7,230.0L539.9,235.4L541.0,233.4L542.2,231.8L543.4,231.5L544.6,230.6L545.8,232.9L547.0,202.6L548.2,203.0L549.4,202.7L550.6,206.1L551.8,204.8L553.0,204.9L554.1,204.0L555.3,203.7L556.5,203.6L557.7,200.1L558.9,201.1L560.1,200.5L561.3,197.6L562.5,192.5L563.7,190.1L564.9,191.5L566.0,193.1L567.2,185.5L568.4,186.3L569.6,187.1L570.8,193.5L572.0,192.8L573.2,191.6L574.4,191.1L575.6,190.5L576.8,190.6L578.0,190.8L579.1,191.0L580.3,191.0L581.5,193.9L582.7,196.5L583.9,197.0L585.1,189.5L586.3,189.9L587.5,191.2L588.7,187.8L589.9,186.6L591.0,186.0L592.2,184.7L593.4,182.5L594.6,181.9L595.8,177.4L597.0,177.0L598.2,174.8L599.4,176.5L600.6,176.7L601.8,176.7L603.0,177.2L604.1,175.6L605.3,171.8L606.5,170.0L607.7,162.0L608.9,163.1L610.1,161.9L611.3,161.7L612.5,160.4L613.7,159.2L614.9,159.1L616.0,159.5L617.2,158.6L618.4,157.7L619.6,157.4L620.8,157.3L622.0,166.1L623.2,166.0L624.4,166.0L625.6,169.9L626.8,170.2L628.0,173.8L629.1,181.1L630.3,186.8L631.5,181.9L632.7,180.3L633.9,167.0L635.1,165.3L636.3,164.5L637.5,162.5L638.7,160.8L639.9,159.2L641.0,156.2L642.2,163.2L643.4,163.3L644.6,164.7L645.8,163.9L647.0,171.9L648.2,173.1L649.4,173.1L650.6,173.7L651.8,173.7L653.0,174.0L654.1,162.2L655.3,162.2L656.5,171.1L657.7,172.6L658.9,173.3L660.1,174.7L661.3,173.9L662.5,177.4L663.7,175.4L664.9,175.6L666.0,173.9L667.2,174.3L668.4,172.8L669.6,173.0L670.8,176.1L672.0,169.9L673.2,167.8L674.4,166.9L675.6,158.9L676.8,158.6L678.0,158.7L679.1,155.5L680.3,157.9L681.5,153.6L682.7,153.8L683.9,153.8L685.1,153.0L686.3,152.5L687.5,148.9L688.7,148.5L689.9,147.9L691.0,146.4L692.2,146.5L693.4,146.1L694.6,146.0L695.8,145.8L697.0,145.7L698.2,144.1L699.4,144.3L700.6,142.9L701.8,138.4L703.0,138.7L704.1,152.9L705.3,150.7L706.5,141.9L707.7,120.0L708.9,120.1L710.1,114.1L711.3,111.7L712.5,108.4L713.7,108.0L714.9,107.3L716.0,107.7L717.2,106.0L718.4,106.0L719.6,105.1L720.8,106.8L722.0,104.8L723.2,95.3L724.4,99.6L725.6,98.1L726.8,90.7L728.0,94.3L729.1,95.7L730.3,94.1L731.5,93.5L732.7,99.9L733.9,101.4L735.1,100.5L736.3,95.5L737.5,92.6L738.7,88.8L739.9,94.3L741.0,88.2L742.2,88.4L743.4,88.1L744.6,87.6L745.8,104.2L747.0,98.0L748.2,97.5L749.4,97.9L750.6,97.0L751.8,97.4L753.0,97.8L754.1,103.9L755.3,100.9L756.5,101.6L757.7,101.7L758.9,101.4L760.1,110.4L761.3,124.5L762.5,123.1L763.7,120.7L764.9,121.9L766.0,139.6L767.2,139.5L768.4,136.2L769.6,135.7L770.8,134.4L772.0,133.7L773.2,152.5L774.4,129.9L775.6,130.1L776.8,114.1L778.0,114.6L779.1,118.5L780.3,119.7L781.5,120.4L782.7,119.2L783.9,148.3L785.1,113.2L786.3,113.0L787.5,115.9L788.7,116.4L789.9,116.7L791.0,115.8L792.2,112.1L793.4,111.8L794.6,111.5L795.8,105.4L797.0,107.5L798.2,120.3L799.4,125.1L800.6,105.7L801.8,106.2L803.0,105.6L804.1,106.2L805.3,106.3L806.5,105.6L807.7,106.9L808.9,107.8L810.1,107.8L811.3,108.1L812.5,108.9L813.7,109.7L814.9,108.4L816.0,102.5L817.2,103.7L818.4,103.9L819.6,105.7L820.8,107.1L822.0,107.5L823.2,108.6L824.4,110.4L825.6,106.8L826.8,108.0L828.0,107.9L829.1,108.1L830.3,117.4L831.5,118.2L832.7,118.3L833.9,117.4L835.1,117.3L836.3,117.5L837.5,117.8L838.7,118.0L839.9,117.9L841.0,117.8L842.2,119.0L843.4,118.9L844.6,119.5L845.8,130.5L847.0,130.5L848.2,131.3L849.4,127.2L850.6,126.9L851.8,127.2L853.0,127.3L854.1,128.1L855.3,132.9L856.5,137.9L857.7,135.9L858.9,138.5L860.1,138.3L861.3,139.3L862.5,157.7L863.7,159.0L864.9,158.1L866.0,157.0L867.2,159.7L868.4,156.3L869.6,157.7L870.8,157.6L872.0,168.7"/>
  <text class="footer" x="72" y="372">source: queries/01_tvl_daily.sql (executed verbatim) · susds-indexer · generated 2026-07-22T00:33:43.772Z · watermark block 25,584,531</text>
</svg>
